<?xml version="1.0" encoding="utf-8"?>
<!-- Generator: Adobe Illustrator 23.0.1, SVG Export Plug-In . SVG Version: 6.00 Build 0)  -->
<svg version="1.1" id="Layer_2" xmlns="http://www.w3.org/2000/svg" xmlns:xlink="http://www.w3.org/1999/xlink" x="0px" y="0px"
	 width="48px" height="48px" viewBox="0 0 48 48" style="enable-background:new 0 0 48 48;" xml:space="preserve">
<style type="text/css">
	.st0{fill:none;stroke:#FFFFFF;stroke-linecap:round;stroke-linejoin:round;stroke-miterlimit:10;}
</style>
<g>
	<path class="st0" d="M21.3,45.7c0,0.8,5.3,0.7,5.3-0.1c0-0.8,0-3.6,0-3.6h-5.3L21.3,45.7z"/>
	<path class="st0" d="M24,39.4V1.8c0,0,16.8-1.8,16.8,14.6C40.8,30,31.1,33.6,24,39.4z"/>
	<path class="st0" d="M24,39.4c3.1-5.5,9.4-10.6,9.4-24.7c0-3.8-1.9-11-9.4-12.9"/>
	<path class="st0" d="M24,39.4V1.8c0,0-16.8-1.8-16.8,14.6C7.2,30,16.9,33.6,24,39.4z"/>
	<path class="st0" d="M24,39.4c-3.1-5.5-9.4-10.6-9.4-24.7c0-3.8,1.9-11,9.4-12.9"/>
</g>
</svg>
