<?xml version="1.0" encoding="utf-8"?>
<!-- Generator: Adobe Illustrator 23.0.1, SVG Export Plug-In . SVG Version: 6.00 Build 0)  -->
<svg version="1.1" id="Layer_2" xmlns="http://www.w3.org/2000/svg" xmlns:xlink="http://www.w3.org/1999/xlink" x="0px" y="0px"
	 width="48px" height="48px" viewBox="0 0 48 48" style="enable-background:new 0 0 48 48;" xml:space="preserve">
<style type="text/css">
	.st0{fill:none;stroke:#FFFFFF;stroke-linecap:round;stroke-linejoin:round;}
	.st1{fill:none;stroke:#FFFFFF;stroke-linecap:round;stroke-linejoin:round;stroke-miterlimit:10;}
</style>
<path class="st0" d="M41.7,13H24.8c-2-0.1-5.9-4.2-8.2-4.2H6.7c-1.2,0-2.2,1-2.2,2.2c0,0,0,0,0,0.1l0,0v7.3h39V15
	C43.5,13.9,42.7,13,41.7,13L41.7,13z"/>
<path class="st0" d="M43.5,18.3h-39V37c0,1.2,1,2.2,2.2,2.2l0,0h34.7c1.2,0,2.2-1,2.2-2.2l0,0l0,0V18.3H43.5z"/>
<path id="S" class="st1" d="M36.9,35.9c0.3,1.2,3.5,1.3,3.6-0.4c0-0.9-1.8-1-1.8-1s-1.8-0.1-1.8-1c0.1-1.7,3.2-1.6,3.6-0.4"/>
<path id="U" class="st1" d="M31.2,32.2c0,1.2,0,1.7,0,2.7c0,2.6,3.5,2.3,3.5,0c0-0.8,0-1.7,0-2.7"/>
<path id="S_1_" class="st1" d="M25.4,35.9c0.3,1.2,3.5,1.3,3.6-0.4c0-0.9-1.8-1-1.8-1s-1.8-0.1-1.8-1c0.1-1.7,3.2-1.6,3.6-0.4"/>
<line id="A_1_" class="st1" x1="19.8" y1="34.7" x2="23.4" y2="34.7"/>
<path id="A" class="st1" d="M23.4,36.8c0-1.2,0-1.7,0-2.7c0-2.6-3.6-2.3-3.6,0c0,0.8,0,1.7,0,2.7"/>
</svg>
