<?xml version="1.0" encoding="utf-8"?>
<!-- Generator: Adobe Illustrator 23.0.1, SVG Export Plug-In . SVG Version: 6.00 Build 0)  -->
<svg version="1.1" id="Calque_2" xmlns="http://www.w3.org/2000/svg" xmlns:xlink="http://www.w3.org/1999/xlink" x="0px" y="0px"
	 viewBox="0 0 48 48" style="enable-background:new 0 0 48 48;" xml:space="preserve">
<style type="text/css">
	.st0{fill:none;stroke:#FFFFFF;stroke-miterlimit:10;}
	.st1{fill:none;stroke:#FFFFFF;stroke-width:0.9795;stroke-miterlimit:10;}
	.st2{fill:none;stroke:#FFFFFF;stroke-width:1.0974;stroke-linecap:round;stroke-miterlimit:10;}
	.st3{fill:none;stroke:#FFFFFF;stroke-linecap:round;stroke-linejoin:round;stroke-miterlimit:10;}
</style>
<polygon class="st0" points="4,28 27.2,7 46.9,30.7 27.3,43.7 "/>
<path class="st0" d="M27.3,43c0-11.3-0.1-36-0.1-36"/>
<path class="st1" d="M18.7,40.1H3.9c-1.5,0-2.8-1.2-2.8-2.8V8.6c0-1.5,1.2-2.8,2.8-2.8h14.8c1.5,0,2.8,1.2,2.8,2.8v28.8
	C21.4,38.9,20.2,40.1,18.7,40.1z"/>
<rect x="3.9" y="10" class="st1" width="14.8" height="25"/>
<path class="st2" d="M10.6,30.7l3.1-9.3c0.2-0.5,0.8-0.5,0.9,0l2.7,9.3"/>
<path class="st2" d="M12.1,27.4c1.4,0,4.2,0,4.2,0"/>
<path class="st3" d="M33.9,4.3h5c0.5,0,0.8,0.5,0.6,1l-4.1,8.4"/>
<polyline class="st3" points="45.4,10 43.2,15.6 40.6,10 "/>
<polyline class="st3" points="43,10 40.8,15.6 38.2,10 "/>
</svg>
