<?xml version="1.0" encoding="utf-8"?>
<!-- Generator: Adobe Illustrator 23.0.1, SVG Export Plug-In . SVG Version: 6.00 Build 0)  -->
<svg version="1.1" id="Calque_1" xmlns="http://www.w3.org/2000/svg" xmlns:xlink="http://www.w3.org/1999/xlink" x="0px" y="0px"
	 width="48px" height="48px" viewBox="0 0 48 48" style="enable-background:new 0 0 48 48;" xml:space="preserve">
<style type="text/css">
	.st0{fill:none;stroke:#FFFFFF;stroke-miterlimit:10;}
</style>
<path class="st0" d="M39,16.8H10c-3.8,0-6.8-3.1-6.8-6.8V9.2c0-3.8,3.1-6.8,6.8-6.8h29c3.8,0,6.8,3.1,6.8,6.8v0.8
	C45.8,13.7,42.7,16.8,39,16.8z"/>
<path class="st0" d="M31.8,9.6v29c0,3.8,3.1,6.8,6.8,6.8h0.8c3.8,0,6.8-3.1,6.8-6.8v-29c0-3.8-3.1-6.8-6.8-6.8h-0.8
	C34.8,2.7,31.8,5.8,31.8,9.6z"/>
<path class="st0" d="M43.7,14.5L14.4,42.7c-2.7,2.6-7,2.5-9.6-0.2l0,0c-2.6-2.7-2.5-7,0.2-9.6L34.2,4.6c2.7-2.6,7-2.5,9.6,0.2l0,0
	C46.5,7.5,46.4,11.9,43.7,14.5z"/>
<line class="st0" x1="31.8" y1="16.8" x2="4.9" y2="42.8"/>
</svg>
