<?xml version="1.0" encoding="utf-8"?>
<!-- Generator: Adobe Illustrator 23.0.1, SVG Export Plug-In . SVG Version: 6.00 Build 0)  -->
<svg version="1.1" id="Calque_3" xmlns="http://www.w3.org/2000/svg" xmlns:xlink="http://www.w3.org/1999/xlink" x="0px" y="0px"
	 viewBox="0 0 48 48" style="enable-background:new 0 0 48 48;" xml:space="preserve">
<style type="text/css">
	.st0{fill:none;stroke:#FFFFFF;stroke-width:1.0313;stroke-miterlimit:10;}
</style>
<g>
	<path class="st0" d="M20.2,17.5C14,13.9,14.8,7,17.8,4c3.4-3.5,8.9-3.6,12.3-0.1c2,2,2.7,4.5,2.3,7.3c-0.4,2.8-2,4.8-4.4,6.3
		c1.1,0,2.3,0,3.4,0c1.1,0,1.5,0.4,1.5,1.5c0,0.7,0,1.4,0,2.1c0,0.8-0.5,1.3-1.3,1.3c-1,0-2,0-3.2,0c0.2,6.5,1.1,12.7,5.9,17.8
		c-6.9,0-13.8,0-20.7,0c2.4-2.3,3.8-5.2,4.7-8.3c0.9-3.1,1.2-6.2,1.2-9.5c-1,0-2,0-2.9,0c-1.1,0-1.5-0.4-1.5-1.5c0-0.6,0-1.2,0-1.9
		c0-1.1,0.4-1.5,1.5-1.5C17.7,17.5,18.9,17.5,20.2,17.5z"/>
	<path class="st0" d="M24,41.8c4.3,0,8.6,0,12.9,0c1.3,0,1.6,0.4,1.6,1.6c0,0.6,0,1.1,0,1.7c0,1.2-0.4,1.6-1.6,1.6
		c-3.8,0-7.6,0-11.3,0c-4.9,0-9.7,0-14.6,0c-1.3,0-1.6-0.4-1.7-1.7c0-0.6,0-1.1,0-1.7c0-1.1,0.4-1.5,1.5-1.6
		C15.3,41.8,19.7,41.8,24,41.8z"/>
</g>
</svg>
