<?xml version="1.0" encoding="utf-8"?>
<!-- Generator: Adobe Illustrator 23.0.1, SVG Export Plug-In . SVG Version: 6.00 Build 0)  -->
<svg version="1.1" id="Calque_1" xmlns="http://www.w3.org/2000/svg" xmlns:xlink="http://www.w3.org/1999/xlink" x="0px" y="0px"
	 width="48px" height="48px" viewBox="0 0 48 48" style="enable-background:new 0 0 48 48;" xml:space="preserve">
<style type="text/css">
	.st0{fill:none;stroke:#FFFFFF;stroke-miterlimit:10;}
</style>
<image style="display:none;overflow:visible;" width="840" height="838" xlink:href="44C2EAC0.jpg"  transform="matrix(5.652033e-02 0 0 5.652033e-02 0.5229 -0.639)">
</image>
<g>
	<path class="st0" d="M13.8,32.6c0.3,0,0.6-0.1,0.9-0.1c0.2,0,0.2-0.1,0.2-0.3c-0.1-0.4-0.2-0.7-0.4-1.1c-0.1-0.4-0.2-0.9,0.2-1.2
		c-0.1,0-0.2,0-0.3-0.1c-0.3,0-0.4-0.2-0.4-0.5c0-0.1,0-0.3-0.1-0.4c-0.1-0.2-0.1-0.3,0.1-0.5c0.1-0.1,0.2-0.1,0.3-0.2
		c0.1-0.1,0.3-0.3,0.4-0.5c0.1-0.2,0.2-0.3,0.2-0.5c0-0.1,0-0.2,0-0.2c-0.2-0.1-0.3-0.3-0.5-0.4c-0.1-0.1-0.3-0.1-0.4-0.1
		c0.1-0.3,0.1-0.7,0.2-1c0.2-0.7-0.5-1.2-1.1-1.2c-0.1,0-0.1,0.1-0.2,0.2c-0.1,0.2-0.3,0.3-0.4,0.1c-0.1-0.2-0.3-0.2-0.5-0.1
		c-0.3,0.1-0.5,0.2-0.8,0.3c-0.2,0.1-0.3,0-0.3-0.2c-0.1-2.2,0.3-4.4,1.3-6.4c0,0,0.1-0.1,0.1-0.1c0.4,0.2,0.7,0.4,0.8,0.9
		c0,0.1,0.1,0.2,0.2,0.2c0.3,0,0.7-0.1,1-0.1c0.2,0,0.3-0.2,0.2-0.4c-0.2-0.4-0.1-0.8,0.1-1.2c0.3-0.6,0.5-1.2,0.7-1.8
		c0-0.1,0-0.2-0.1-0.2c-0.2-0.2-0.5-0.3-0.7-0.5c1.2-1.4,2.6-2.5,4.3-3.3c1.9-0.9,3.9-1.4,6-1.4c-0.1,0.1-0.1,0.1-0.1,0.2
		c-0.3,0.1-0.4,0.4-0.6,0.6c-0.2,0.2-0.3,0.4-0.5,0.6c0,0-0.1,0-0.1,0c0-0.1,0-0.2-0.1-0.3c0-0.2-0.1-0.3-0.3-0.2
		c-0.7,0.3-1.5,0.6-1.9,1.3c-0.1,0.3-0.2,0.6-0.3,0.9c0,0.2-0.1,0.3-0.1,0.5c-0.4,0.7-0.2,1.4-0.3,2.1c0,0.2,0.4,0.4,0.6,0.2
		c0.3-0.3,0.6-0.5,0.9-0.8c0.1-0.2,0-0.3-0.1-0.4c-0.2-0.2-0.4-0.7-0.2-1c0.1-0.3,0.4-0.3,0.6-0.4c0.4,0,0.9,0.4,1,0.7
		c0,0.3,0,0.6-0.1,0.9c0,0.1,0,0.1,0,0.2c0,0.4-0.3,0.8-0.8,0.7c-0.4,0-0.7,0.1-0.9,0.5c-0.1,0.4-0.3,0.7-0.2,1.1
		c0,0.2-0.1,0.5-0.2,0.7c0,0.1,0,0.1-0.1,0.3c0.1,0,0.2,0,0.3,0c0.1,0,0.4,0.1,0.4,0.1c0,0.2,0,0.4-0.1,0.5
		c-0.3,0.2-0.3,0.5-0.4,0.8c0,0.1,0,0.2,0,0.2c0,0,0.1,0,0.2,0c0.3-0.1,0.5-0.2,0.8-0.3c0.1-0.1,0.2-0.2,0.2-0.3
		c0.1-0.4,0.2-0.7,0.3-1.1c0.1-0.4,0.2-0.4,0.5-0.3c0,0,0.1,0,0.1,0c0.4-0.1,0.7,0,0.9,0.4c0,0,0.2,0.1,0.2,0.1
		c0.1-0.1,0.1-0.2,0.1-0.2c-0.1-0.2-0.2-0.4-0.4-0.6c-0.1-0.1-0.2-0.2-0.2-0.3c0-0.1,0.1-0.2,0.2-0.2c0.3-0.1,0.6-0.2,0.9-0.3
		c0.2-0.1,0.3,0,0.3,0.2c0.1,0.4,0.3,0.6,0.7,0.6c0.1,0,0.2,0,0.2,0.1c0.1,0.2,0.2,0.2,0.5,0.2c0.3,0,0.6,0.1,0.9,0
		c0.1,0,0.3,0.1,0.4,0.2c0.4,0.3,0.8,0.3,1.2,0.4c0.6,0.1,0.9-0.2,1.2-0.6c0,0,0.1-0.1,0.1-0.1c-0.1-0.3,0.2-0.6,0.3-0.8
		c0.1-0.2,0.2-0.3,0-0.5c-0.2-0.2-0.4-0.1-0.6,0c0,0,0,0,0,0c-0.3,0.5-0.8,0.2-1.2,0.1c-0.1,0-0.2-0.1-0.2-0.2
		c-0.2-0.3-0.1-0.4,0.2-0.5c0.8-0.1,0.8-0.1,1.4-0.5c0.2-0.1,0.5-0.2,0.8-0.3c0.3-0.1,0.6,0.1,0.8,0.3c0.5,0.5,1.1,0.9,1.6,1.3
		c0.4,0.4,0.7,0.4,1.1,0c0.1-0.1,0.2-0.2,0.1-0.4c0,0-0.1-0.1-0.1-0.1c-0.4-0.4-0.5-0.8-0.6-1.3c0-0.1-0.1-0.3-0.1-0.4
		c-0.2-0.2-0.1-0.3,0.1-0.4c0.4-0.2,0.4-0.2,0.7,0.1c1.8,1.9,3,4.1,3.6,6.7c0.6,2.5,0.5,4.9-0.3,7.3c-1.2,3.7-3.5,6.4-6.9,8.2
		c-2,1.1-4.2,1.6-6.5,1.6c-0.1,0-0.1,0-0.2,0c0-0.1,0-0.2,0-0.4c0-0.3-0.1-0.6-0.3-0.9c-0.1-0.1-0.1-0.2-0.1-0.3c0,0,0,0,0-0.1
		c0.5-0.9,0.4-1.9,0.1-2.8c-0.1-0.2,0-0.4-0.1-0.6c-0.1-0.3-0.2-0.7-0.3-1c0-0.1-0.2-0.2-0.3-0.2c-0.5,0-1.1-0.1-1.6,0
		c-0.2,0-0.4,0.1-0.6,0.2c-0.4,0.3-0.8,0.3-1.2-0.1c-0.2-0.2-0.3-0.2-0.6-0.1C19.5,31.9,19.2,32,19,32c-0.1,0-0.2,0-0.3,0.1
		c-0.1,0-0.1,0.1-0.2,0.1c-0.8,0.1-1.3,0.8-2,1.2c-0.2,0.1-0.1,0.2-0.1,0.4c0.3,0.7,0.5,1.3,0.8,2C15.9,34.9,14.8,33.9,13.8,32.6z
		 M27.4,23.6C27.4,23.6,27.4,23.7,27.4,23.6c0.1,0.1,0,0.2,0,0.2c0,0.3,0.4,0.7,0.6,0.8c0.7,0,1.2,0.3,1.4,1
		c0.2,0.7,0.6,1.2,1.4,1.4c0.4,0.1,0.8,0.4,1.1,0.7c0.3,0.2,0.4,0.2,0.6-0.1c0.1-0.2,0.3-0.3,0.5-0.5c0.2-0.2,0.2-0.3,0.1-0.6
		c-0.1-0.3,0-0.6,0-0.9c0-0.4,0-0.9-0.3-1.2c-0.2-0.2-0.2-0.3-0.2-0.5c0.1-0.5-0.3-1.1-0.8-1.2c-0.1,0-0.2-0.1-0.2-0.2
		c0-0.6,0-1.2,0-1.8c0-0.4,0.1-0.8-0.3-1.1c-0.2-0.1-0.3-0.2-0.4-0.1c-0.2,0.2-0.5,0.2-0.8,0.2c-0.3-0.1-0.7-0.1-1-0.1
		c-0.2,0-0.4,0-0.5-0.2c-0.3-0.5-0.8-0.7-1.3-1c-0.1-0.1-0.3-0.1-0.4,0c-0.5,0.3-1.1,0.4-1.3,1.1c-0.1,0.4-0.7,0.4-1.1,0.2
		c-0.1,0-0.2-0.1-0.2-0.1c-0.2,0-0.4-0.1-0.5,0c-0.4,0.2-0.7,0.5-0.9,0.9c-0.1,0.2-0.2,0.3-0.4,0.4c-0.4,0.2-0.3,0.3-0.3,0.7
		c0,0.4,0.1,0.8,0.1,1.2c-0.1,0.9,0.3,1.6,0.9,2.1c0.1,0.1,0.2,0.1,0.3,0.2c0.2,0.1,0.4,0.2,0.5,0.3c0.4,0.2,0.9,0.2,1.2-0.2
		c0.3-0.3,0.5-0.6,0.8-0.9C26.6,23.8,27,23.9,27.4,23.6z"/>
	<path class="st0" d="M33.3,4.7c-0.5,1.2-1,2.4-1.5,3.6c-6-2.3-11.6-1.7-16.8,2c-3.3,2.3-5.4,5.5-6.4,9.4c-2.2,8.4,2.4,17,10.3,20.1
		c7.8,3.1,17.4,0,21.5-8.4c1.2,0.6,2.3,1.2,3.5,1.7c-2.6,5.8-9,11.3-17.5,11.8C17.1,45.5,8.9,40,5.6,31.8c-3.4-8.5-0.9-18,5.8-23.8
		C18.3,2.1,27.1,1.9,33.3,4.7z"/>
	<path class="st0" d="M33.7,47c-0.3-0.7-0.6-1.3-0.9-2c0.7-0.3,1.4-0.6,2-0.9c0.3,0.7,0.6,1.3,0.9,2C35.1,46.3,34.4,46.7,33.7,47z"
		/>
	<path class="st0" d="M15.6,4c-0.3-0.7-0.6-1.4-0.8-2.1c0.7-0.3,1.4-0.6,2.1-0.8c0.3,0.7,0.5,1.4,0.8,2.1C16.9,3.4,16.3,3.7,15.6,4z
		"/>
</g>
</svg>
