<?xml version="1.0" encoding="utf-8"?>
<!-- Generator: Adobe Illustrator 23.0.1, SVG Export Plug-In . SVG Version: 6.00 Build 0)  -->
<svg version="1.1" id="Calque_1" xmlns="http://www.w3.org/2000/svg" xmlns:xlink="http://www.w3.org/1999/xlink" x="0px" y="0px"
	 width="48px" height="48px" viewBox="0 0 48 48" style="enable-background:new 0 0 48 48;" xml:space="preserve">
<style type="text/css">
	.st0{fill:none;stroke:#FFFFFF;stroke-miterlimit:10;}
	.st1{fill:none;stroke:#FFFFFF;stroke-linecap:round;stroke-linejoin:round;stroke-miterlimit:10;}
</style>
<g id="Calque_3">
	<g>
		<path class="st0" d="M5.9,24c0,2.6-1.6,3.1-4.2,3.1c-0.4,0-0.8-0.3-0.8-0.7V24v-2.4c0-0.4,0.4-0.7,0.8-0.7
			C4.4,20.9,5.9,21.4,5.9,24z"/>
		<polyline class="st1" points="9.9,27.1 7.2,27.1 7.2,24 7.2,20.9 9.9,20.9 		"/>
		<line class="st1" x1="9.5" y1="24" x2="7.4" y2="24"/>
		<path class="st1" d="M16.5,21.7c-0.6-0.6-1.6-1-2.2-1c-1.7,0-3.1,1.5-3.1,3.1s0.9,3.1,3.1,3.1c0.9,0,1.5-0.6,2.1-1.2l3.4-4.9V27"
			/>
		<line class="st1" x1="17" y1="25.3" x2="19.6" y2="25.3"/>
		<line class="st1" x1="21.1" y1="20.9" x2="25" y2="20.9"/>
		<line class="st1" x1="23.1" y1="27" x2="23.1" y2="21.1"/>
		<line class="st1" x1="26.5" y1="20.9" x2="26.5" y2="27.1"/>
		<line class="st1" x1="30.3" y1="20.9" x2="30.3" y2="27"/>
		<line class="st1" x1="26.9" y1="24" x2="30" y2="24"/>
		<polyline class="st1" points="32.6,20.8 32.6,27 35.5,27 		"/>
		<circle class="st1" cx="38.1" cy="24" r="3.3"/>
		<polyline class="st1" points="42.6,27.1 42.6,20.9 47.1,27.1 47.1,20.9 		"/>
	</g>
</g>
</svg>
