<?xml version="1.0" encoding="utf-8"?>
<!-- Generator: Adobe Illustrator 23.0.1, SVG Export Plug-In . SVG Version: 6.00 Build 0)  -->
<svg version="1.1" xmlns="http://www.w3.org/2000/svg" xmlns:xlink="http://www.w3.org/1999/xlink" x="0px" y="0px" width="48px"
	 height="48px" viewBox="0 0 48 48" style="enable-background:new 0 0 48 48;" xml:space="preserve">
<style type="text/css">
	.st0{fill:none;stroke:#FFFFFF;stroke-linecap:round;stroke-linejoin:round;stroke-miterlimit:10;}
</style>
<g id="_x32_3_1_">
	<path class="st0" d="M4.5,11.6c0.6-3.5,6.3-4.5,5.2,0c-0.3,1.4-6.1,5.6-7.4,8.2c5.4,0,7,0.3,7-1.6"/>
	<path class="st0" d="M14,10.9c0.5-2.8,5.5-3.3,5.5,0c0,2.4-3,2.7-3.9,3.3c1.4,0.5,3.9,1.5,2.9,4c-1.1,2.5-6.2,2.7-6.1,0"/>
	<ellipse transform="matrix(0.1955 -0.9807 0.9807 0.1955 7.2501 34.1804)" class="st0" cx="24.5" cy="12.7" rx="1.6" ry="1.4"/>
	<ellipse transform="matrix(0.1955 -0.9807 0.9807 0.1955 0.8699 37.6941)" class="st0" cx="23.4" cy="18.3" rx="1.6" ry="1.4"/>
	<path class="st0" d="M31.2,19.8c4.4,0,6.5-11.2,2.5-11.2C29,8.6,27.2,19.8,31.2,19.8z"/>
	<path class="st0" d="M41.1,19.8c4.4,0,6.5-11.2,2.5-11.2C38.9,8.6,37.1,19.8,41.1,19.8z"/>
</g>
<g id="Plus">
	<path class="st0" d="M22.4,45.3c-1.5-3.6-2.4-5.6-3.2-7.8c0.9-0.6,2.9-2.1,3.9-2.2c1.7,0,2.6,2.7,1.4,4.3c-0.5,0.6-2,1.4-3.2,2.2"
		/>
	<line class="st0" x1="30.2" y1="40" x2="27" y2="32.2"/>
	<path class="st0" d="M35.5,30c0.5,1.2,1.2,2.9,1.3,3.9c0.1,1.9-1.1,3.2-2.8,2.9c-1.3-0.3-2.1-2.8-2.7-4.2"/>
	<line class="st0" x1="37.8" y1="35.6" x2="36.3" y2="31.8"/>
	<path class="st0" d="M42.1,25.7c-3.2,1.4-3.8,2.3-3,3.5c0.8,1.1,3.5-1.5,4.6,0.3c0.8,1.5-1.3,3-3.1,3.5"/>
</g>
</svg>
