<?xml version="1.0" encoding="utf-8"?>
<!-- Generator: Adobe Illustrator 23.0.1, SVG Export Plug-In . SVG Version: 6.00 Build 0)  -->
<svg version="1.1" xmlns="http://www.w3.org/2000/svg" xmlns:xlink="http://www.w3.org/1999/xlink" x="0px" y="0px" width="48px"
	 height="48px" viewBox="0 0 48 48" style="enable-background:new 0 0 48 48;" xml:space="preserve">
<style type="text/css">
	.st0{display:none;}
	.st1{fill:none;stroke:#FFFFFF;stroke-linecap:round;stroke-linejoin:round;stroke-miterlimit:10;}
</style>
<g id="Calque_1" class="st0">
	
		<image style="display:inline;overflow:visible;" width="310" height="308" xlink:href="1976FF57.jpg"  transform="matrix(0.1669 0 0 0.1669 0 -3.869)">
	</image>
</g>
<g id="Calque_2">
	<g>
		<path class="st1" d="M3,35.7c0,8.9,4,9,12.7,9c0-3.4,0-14.6,0-18C6.9,26.7,3,26.8,3,35.7z"/>
		<path class="st1" d="M45,35.7c0,8.9-4,9-12.7,9c0-3.4,0-14.6,0-18C41.1,26.7,45,26.8,45,35.7z"/>
		<path class="st1" d="M3,35.7c0-13.1,0.9-18.4,5.8-25.1c3.9-5.3,9.8-7.3,15.2-7.3s11.3,2,15.2,7.3c4.9,6.7,5.8,12,5.8,25.1"/>
	</g>
</g>
</svg>
