<?xml version="1.0" encoding="utf-8"?>
<!-- Generator: Adobe Illustrator 23.0.1, SVG Export Plug-In . SVG Version: 6.00 Build 0)  -->
<svg version="1.1" id="Calque_2" xmlns="http://www.w3.org/2000/svg" xmlns:xlink="http://www.w3.org/1999/xlink" x="0px" y="0px"
	 width="48px" height="48px" viewBox="0 0 48 48" style="enable-background:new 0 0 48 48;" xml:space="preserve">
<style type="text/css">
	.st0{fill:none;stroke:#FFFFFF;stroke-linecap:round;stroke-linejoin:round;stroke-miterlimit:10;}
</style>
<path class="st0" d="M12.4,25.8c-1-0.4-2-0.6-3.1-0.6c-4.4,0-8,3.6-8,8s3.6,8,8,8H36c5.9,0,10.7-4.8,10.7-10.7S41.9,19.8,36,19.8
	c-0.4,0-0.8,0-1.2,0.1l0-0.1c0-0.3,0-0.6,0-0.8c0-6.8-5.5-12.2-12.2-12.2S10.3,12.2,10.3,19C10.3,21.5,11.1,23.9,12.4,25.8
	c2.2,3.3,5.9,5.4,10.1,5.4c1.6,0,3-0.3,4.4-0.8"/>
</svg>
