<?xml version="1.0" encoding="utf-8"?>
<!-- Generator: Adobe Illustrator 23.0.1, SVG Export Plug-In . SVG Version: 6.00 Build 0)  -->
<svg version="1.1" id="Calque_2" xmlns="http://www.w3.org/2000/svg" xmlns:xlink="http://www.w3.org/1999/xlink" x="0px" y="0px"
	 width="48px" height="48px" viewBox="0 0 48 48" style="enable-background:new 0 0 48 48;" xml:space="preserve">
<style type="text/css">
	.st0{fill:none;stroke:#FFFFFF;stroke-miterlimit:10;}
	.st1{fill:none;stroke:#FFFFFF;stroke-linecap:round;stroke-linejoin:round;stroke-miterlimit:10;}
</style>
<g id="Calque_3">
	<g>
		<path class="st0" d="M13.8,2.6H5.4c-1.6,0-2.8,1.3-2.8,2.8v37.1c0,1.6,1.3,2.8,2.8,2.8h37.1c1.6,0,2.8-1.3,2.8-2.8v-5V21.1v-9.8
			c0-1.6-1.3-2.8-2.8-2.8H32.3L17.7,8.3L13.8,2.6z"/>
		<path class="st0" d="M24,2.6"/>
		<line class="st0" x1="3" y1="17.3" x2="45" y2="17.3"/>
	</g>
</g>
<g id="DS">
	<path class="st1" d="M31.2,36.2c0,1.8,0,3.2,0,4.6c0.9,0,1.3,0,2.1,0c2,0,1.8-4.6,0-4.6C32.7,36.2,32,36.2,31.2,36.2z"/>
	<path class="st1" d="M36.9,39.9c0.3,1.2,3.5,1.3,3.6-0.4c0-0.9-1.8-1-1.8-1s-1.8-0.1-1.8-1c0.1-1.7,3.2-1.6,3.6-0.4"/>
</g>
</svg>
