<?xml version="1.0" encoding="utf-8"?>
<!-- Generator: Adobe Illustrator 23.0.1, SVG Export Plug-In . SVG Version: 6.00 Build 0)  -->
<svg version="1.1" id="Calque_2" xmlns="http://www.w3.org/2000/svg" xmlns:xlink="http://www.w3.org/1999/xlink" x="0px" y="0px"
	 width="48px" height="48px" viewBox="0 0 48 48" style="enable-background:new 0 0 48 48;" xml:space="preserve">
<style type="text/css">
	.st0{fill:none;stroke:#FFFFFF;stroke-miterlimit:10;}
</style>
<path class="st0" d="M37.5,39.9h2.8c0.6,0,1-0.5,1-1V36c0-0.6-0.5-1-1-1h-2.8c-0.6,0-1,0.5-1,1v2.8C36.4,39.4,36.9,39.9,37.5,39.9z"
	/>
<path class="st0" d="M37.5,31.2h2.8c0.6,0,1-0.5,1-1v-2.8c0-0.6-0.5-1-1-1h-2.8c-0.6,0-1,0.5-1,1v2.8C36.4,30.7,36.9,31.2,37.5,31.2
	z"/>
<path class="st0" d="M37.5,22.5h2.8c0.6,0,1-0.5,1-1v-2.8c0-0.6-0.5-1-1-1h-2.8c-0.6,0-1,0.5-1,1v2.8C36.4,22.1,36.9,22.5,37.5,22.5
	z"/>
<path class="st0" d="M37.5,13.8h2.8c0.6,0,1-0.5,1-1V10c0-0.6-0.5-1-1-1h-2.8c-0.6,0-1,0.5-1,1v2.8C36.4,13.3,36.9,13.8,37.5,13.8z"
	/>
<path class="st0" d="M10.5,39.9H7.7c-0.6,0-1-0.5-1-1V36c0-0.6,0.5-1,1-1h2.8c0.6,0,1,0.5,1,1v2.8C11.6,39.4,11.1,39.9,10.5,39.9z"
	/>
<path class="st0" d="M10.5,31.2H7.7c-0.6,0-1-0.5-1-1v-2.8c0-0.6,0.5-1,1-1h2.8c0.6,0,1,0.5,1,1v2.8C11.6,30.7,11.1,31.2,10.5,31.2z
	"/>
<path class="st0" d="M10.5,22.5H7.7c-0.6,0-1-0.5-1-1v-2.8c0-0.6,0.5-1,1-1h2.8c0.6,0,1,0.5,1,1v2.8C11.6,22.1,11.1,22.5,10.5,22.5z
	"/>
<path class="st0" d="M10.5,13.8H7.7c-0.6,0-1-0.5-1-1V10c0-0.6,0.5-1,1-1h2.8c0.6,0,1,0.5,1,1v2.8C11.6,13.3,11.1,13.8,10.5,13.8z"
	/>
<path class="st0" d="M32.6,42.1H15.4c-0.6,0-1.1-0.5-1.1-1.1V26.4c0-0.6,0.5-1.1,1.1-1.1h17.2c0.6,0,1.1,0.5,1.1,1.1V41
	C33.7,41.6,33.2,42.1,32.6,42.1z"/>
<path class="st0" d="M32.6,23.6H15.4c-0.6,0-1.1-0.5-1.1-1.1V7.9c0-0.6,0.5-1.1,1.1-1.1h17.2c0.6,0,1.1,0.5,1.1,1.1v14.6
	C33.7,23.1,33.2,23.6,32.6,23.6z"/>
<path class="st0" d="M42.3,45.6H5.7c-1.6,0-2.8-1.3-2.8-2.8V6.1c0-1.6,1.3-2.8,2.8-2.8h36.7c1.6,0,2.8,1.3,2.8,2.8v36.7
	C45.2,44.3,43.9,45.6,42.3,45.6z"/>
</svg>
