<?xml version="1.0" encoding="utf-8"?>
<!-- Generator: Adobe Illustrator 23.0.1, SVG Export Plug-In . SVG Version: 6.00 Build 0)  -->
<svg version="1.1" id="Calque_1" xmlns="http://www.w3.org/2000/svg" xmlns:xlink="http://www.w3.org/1999/xlink" x="0px" y="0px"
	 width="48px" height="48px" viewBox="0 0 48 48" style="enable-background:new 0 0 48 48;" xml:space="preserve">
<style type="text/css">
	.st0{fill:none;stroke:#FFFFFF;stroke-miterlimit:10;}
	.st1{fill:none;stroke:#FFFFFF;stroke-linecap:round;stroke-linejoin:round;stroke-miterlimit:10;}
</style>
<g>
	<path class="st0" d="M9.7,14.7c-0.5-1.3,4.1-6.9,15.6-8.3c6.2-0.8,13.4-1.6,19.8,0.5c5,1.7-2.9,12.1-4.3,11.1
		c-1.6-1.3-4.4-4.4-12.4-5.6C15.7,10.4,10.6,16.8,9.7,14.7z"/>
	<path class="st1" d="M22.3,13.8c1.6,0.1,6.6,0.3,7.4,1.2c0.8,1-0.7,4.5-1.7,7.7c3.4-0.5,4.7-0.7,7-0.7c2.3,0,5.9,2.2,2.9,6.7
		c-3,4.5-3.8,5-12.7-1.4c-0.8,7.6-2,15-12,15.1c-7.5,0-12.2-2.3-11.9-4.7c0.2-1.4,3.7-0.3,6.2-3.3c1.5-1.8,1.8-6.1,3.2-10.9
		c0.9-3.1,2-6.9,4.3-8.1C17.5,14.1,20.9,13.8,22.3,13.8z"/>
</g>
</svg>
