<?xml version="1.0" encoding="utf-8"?>
<!-- Generator: Adobe Illustrator 23.0.1, SVG Export Plug-In . SVG Version: 6.00 Build 0)  -->
<svg version="1.1" id="Calque_2" xmlns="http://www.w3.org/2000/svg" xmlns:xlink="http://www.w3.org/1999/xlink" x="0px" y="0px"
	 width="48px" height="48px" viewBox="0 0 48 48" style="enable-background:new 0 0 48 48;" xml:space="preserve">
<style type="text/css">
	.st0{fill:none;stroke:#FFFFFF;stroke-linecap:round;stroke-linejoin:round;stroke-miterlimit:10;}
</style>
<image style="display:none;overflow:visible;" width="656" height="633" xlink:href="3FB104A0.jpg"  transform="matrix(1 0 0 1 -325 -291.3071)">
</image>
<g>
	<path class="st0" d="M1.2,11c2.9,0.2,5.7,0.3,8.6,0.5c1.9,0.1,3.8,0.2,5.8,0.3c1.4,0.1,2.8,0.2,4.2,0.2c-2.2,4-4.3,8-6.4,12
		c-0.1-0.1-0.2-0.2-0.3-0.3c-3.3-3.5-6.7-7.1-10-10.6c-0.6-0.7-1.3-1.3-1.9-2C1.2,11.1,1.2,11.1,1.2,11z"/>
	<path class="st0" d="M30.2,13.3c-0.2,1.2-0.4,2.4-0.6,3.6c-0.5,2.7-0.9,5.4-1.4,8.2c0,0.3-0.1,0.5-0.4,0.7c-2.1,2-4.1,4-6.2,6
		c-0.1,0.1-0.2,0.1-0.3,0.2c-0.5-0.5-1-1-1.4-1.5c-1.5-1.6-2.9-3.2-4.4-4.7c-0.2-0.2-0.2-0.3-0.1-0.5c2.1-4,4.3-8.1,6.4-12.1
		c0.1-0.2,0.2-0.3,0.5-0.3c2.6,0.1,5.2,0.3,7.8,0.4C30.1,13.3,30.2,13.3,30.2,13.3z"/>
	<path class="st0" d="M14.8,28c1.7,1.8,3.3,3.6,5,5.3c-2.7,2.7-5.4,5.3-8.1,7.9c0,0-0.1,0-0.1,0C12.6,36.8,13.7,32.5,14.8,28z"/>
	<path class="st0" d="M28.8,7c6,0,12,0,17.9,0c0,0,0,0,0,0.1c-5,1.4-10,2.8-15,4.1C30.8,9.8,29.9,8.4,28.8,7z"/>
	<path class="st0" d="M27.1,7.5c1,1.4,2,2.8,3,4.2c-2.5-0.1-4.9-0.2-7.3-0.3c0,0,0-0.1,0-0.1C24.2,10.1,25.6,8.8,27.1,7.5z"/>
	<path class="st0" d="M8.7,6.7c3.4,1.3,6.8,2.5,10.1,3.7c0,0,0,0,0,0.1c-1.2-0.1-2.5-0.1-3.7-0.2c-1.4-0.1-2.8-0.2-4.2-0.3
		c-0.4,0-0.7-0.1-0.9-0.6C9.6,8.6,9.2,7.7,8.7,6.7z"/>
</g>
</svg>
