<?xml version="1.0" encoding="utf-8"?>
<!-- Generator: Adobe Illustrator 23.0.1, SVG Export Plug-In . SVG Version: 6.00 Build 0)  -->
<svg version="1.1" id="Calque_1" xmlns="http://www.w3.org/2000/svg" xmlns:xlink="http://www.w3.org/1999/xlink" x="0px" y="0px"
	 width="48px" height="48px" viewBox="0 0 48 48" style="enable-background:new 0 0 48 48;" xml:space="preserve">
<style type="text/css">
	.st0{fill:none;stroke:#FFFFFF;stroke-miterlimit:10;}
</style>
<path class="st0" d="M10.9,34.6c1.9-0.2,3.8-0.4,5.7-0.6c1.1,4.6,6.5,5.4,9.7,3.9c1.9-0.9,3.1-2.6,3-4.7c-0.1-2-1.2-3.6-3.3-4.3
	c-1-0.3-2-0.5-3-0.5C20.8,28.3,18.8,28,17,27c-3.6-1.9-5.6-5-6.1-8.9c-0.5-4.1,0.4-7.8,3.5-10.8C16.7,5,19.5,4.1,22.6,4
	c4.7,0,9.3,0,14,0c0.2,0,0.4,0,0.6,0.1c-0.4,1.7-1.2,3-2.5,4.1c-0.8,0.7-1.7,1-2.7,1c-2.9-0.1-5.9,0-8.8,0c-4.5-0.1-6.9,3.5-6.8,7.5
	c0,0.7,0.1,1.3,0.3,1.9c0.9,3.1,3.6,4.9,6.8,4.6c3.2-0.4,5.5-2.8,5.7-6.2c0.1-2-0.3-3.8-1.6-5.4c-0.1-0.1-0.1-0.2-0.3-0.4
	c2.1,0,4.2,0,6.2,0c0.2,0,0.5,0.3,0.6,0.5c1.5,4,1.1,9.8-2.7,13.4c-0.2,0.2-0.5,0.3-0.8,0.5c0.4,0.3,0.6,0.5,0.8,0.6
	c2.1,1.5,3.3,3.5,3.4,6c0.4,6.1-3.2,10.6-9.4,11.5c-3.4,0.5-6.8,0.2-9.8-1.6C13,40.5,11.3,38,10.9,34.6z"/>
</svg>
