<?xml version="1.0" encoding="utf-8"?>
<!-- Generator: Adobe Illustrator 23.0.1, SVG Export Plug-In . SVG Version: 6.00 Build 0)  -->
<svg version="1.1" id="Calque_1" xmlns="http://www.w3.org/2000/svg" xmlns:xlink="http://www.w3.org/1999/xlink" x="0px" y="0px"
	 width="48px" height="48px" viewBox="0 0 48 48" style="enable-background:new 0 0 48 48;" xml:space="preserve">
<style type="text/css">
	.st0{fill:none;stroke:#FFFFFF;stroke-miterlimit:10;}
</style>
<path class="st0" d="M45.8,21.5c0,6,0,13.4,0,16.3c0,5.5-8.4,4.9-13.9,4.9s-11.7,0.1-17.6,0.1c-4.1,0-12.1,0.5-12.1-4.3
	c0-4.3,0-10.7,0-17c0.4,0,0.7-0.1,1.1-0.1c0.6,0.2,1.1,0.4,1.7,0.5c8.3,2,21.3,5.9,24.9,5.9S45.8,21.5,45.8,21.5c0-0.3,0-0.6,0-0.9
	c-3-2.8-6.6-3.8-10.7-3.7C26.8,17.1,18.5,17,10.2,17c-3.2,0-6,0.7-6.9,4.4"/>
<path class="st0" d="M45.8,20.7c-3-2.8-6.6-3.9-10.7-3.8C26.8,17.1,18.5,17,10.2,17c-3.2,0-6,0.7-6.9,4.4c-0.4,0-0.7,0.1-1.1,0.1
	c0-2.1,0-4.2,0-6.4c2-3,4.9-4.1,8.4-4.1c7.7,0,15.3,0.1,23-0.2c4.7-0.2,8.9,0.5,12.2,4.2C45.8,17,45.8,18.9,45.8,20.7z"/>
<path class="st0" d="M45.8,15.2c-3.2-3.7-7.4-4.4-12.2-4.2c-7.7,0.3-15.3,0.2-23,0.2c-3.5,0-6.4,1-8.4,4.1c0-2.4-1.1-10,12.5-10
	c4.6,0,9.3,0,13.9,0C45.5,5.2,45.8,7.4,45.8,15.2z"/>
</svg>
