<?xml version="1.0" encoding="utf-8"?>
<!-- Generator: Adobe Illustrator 23.0.1, SVG Export Plug-In . SVG Version: 6.00 Build 0)  -->
<svg version="1.1" xmlns="http://www.w3.org/2000/svg" xmlns:xlink="http://www.w3.org/1999/xlink" x="0px" y="0px" width="48px"
	 height="48px" viewBox="0 0 48 48" style="enable-background:new 0 0 48 48;" xml:space="preserve">
<style type="text/css">
	.st0{fill:none;stroke:#FFFFFF;stroke-linecap:round;stroke-linejoin:round;stroke-miterlimit:10;}
</style>
<g id="Calque_1">
	<path class="st0" d="M32.8,40.8c-6.1-1.6-12.1-3.1-18.2-4.7c-4.7-1.2-9.4-2.4-14-3.6"/>
	<path class="st0" d="M0.6,26.2c3.2,1.4,6.1,2.8,9.3,4.3c2.5,1.1,5,2.3,7.5,3.4c2.8,1.3,5.6,2.5,8.4,3.8c2.3,1,4.6,2.1,6.9,3.1
		c0.1,0,0.1,0.1,0.2,0.1"/>
	<path class="st0" d="M47.4,46.4c-0.1,0-0.1,0-0.2-0.1c-0.7-0.3-1.3-0.5-1.9-0.8c-2.6-1-5.2-2-7.8-3c-1.4-0.6-2.9-1.1-4.3-1.7"/>
	<path class="st0" d="M33.1,40.9c0,0,0.1-0.1,0.1-0.1c0.1,0,0.1,0,0.2,0c0.2-0.1,0.4-0.1,0.6-0.2c1.2-0.4,2.5-0.9,3.7-1.3
		c3.4-1.2,6.3-2.2,9.7-3.4"/>
	<path class="st0" d="M47.4,35.9c-3.4,1.2-6.3,2.2-9.7,3.4c-1.2,0.4-2.5,0.9-3.7,1.3c-0.2,0.1-0.4,0.1-0.6,0.2c-0.1,0-0.1,0-0.2,0
		c3.3-2.7,6.5-5.4,9.8-8.1c1.7-1.4,2.7-2.1,4.4-3.6"/>
	<path class="st0" d="M14.7,47.4c6-2.2,11.9-4.1,17.9-6.3c0.1,0,0.2-0.1,0.3-0.1c0,0,0,0,0,0c0,0,0,0,0,0"/>
	<path class="st0" d="M42.9,47.4c-2.5-1.7-5.1-3.2-7.6-4.9c-0.7-0.5-1.4-0.9-2-1.4l0,0c0,0-0.1-0.1-0.1-0.1c0,0-0.1,0-0.1-0.1
		c0,0,0,0,0,0"/>
	<path class="st0" d="M0.6,40c1,0,1.8,0,2.9,0.1c0.6,0,1.1,0,1.7,0.1c1.4,0,2.8,0.1,4.2,0.1c1.6,0,3.1,0.1,4.7,0.1
		c1.5,0,3.1,0.1,4.6,0.1c1.5,0,3.1,0.1,4.6,0.1c1.5,0,3.1,0.1,4.6,0.1c1.5,0,3.1,0.1,4.6,0.1c0.1,0,0.1,0,0.2,0c-0.1,0-0.1,0-0.2,0
		c-0.8,0.1-1.7,0.2-2.5,0.3c-1,0.1-1.9,0.3-2.9,0.4c-1.2,0.2-2.4,0.3-3.7,0.5c-1.1,0.1-2.1,0.3-3.2,0.4c-1.2,0.2-2.4,0.3-3.6,0.5
		c-1.1,0.1-2.1,0.3-3.2,0.4c-1.2,0.2-2.4,0.3-3.6,0.5c-1.2,0.2-2.4,0.3-3.6,0.5c-1.1,0.1-2.2,0.3-3.3,0.4c-0.9,0.1-1.6,0.2-2.5,0.3"
		/>
	<path class="st0" d="M0.6,45.3c0.9-0.1,1.6-0.2,2.5-0.3c1.1-0.1,2.2-0.3,3.3-0.4c1.2-0.2,2.4-0.3,3.6-0.5c1.2-0.2,2.4-0.3,3.6-0.5
		c1.1-0.1,2.1-0.3,3.2-0.4c1.2-0.2,2.4-0.3,3.6-0.5c1.1-0.1,2.1-0.3,3.2-0.4c1.2-0.2,2.4-0.3,3.7-0.5c1-0.1,1.9-0.3,2.9-0.4
		c0.8-0.1,1.7-0.2,2.5-0.3c0.1,0,0.1,0,0.2,0c0.1,0,0.2,0,0.2,0"/>
	<path class="st0" d="M27.2,47.5c0.5-0.6,0.9-0.9,1.5-1.6c0.8-0.9,1.6-1.8,2.4-2.7c0.6-0.7,1.1-1.3,1.7-2c0.1-0.1,0.2-0.2,0.2-0.3
		c0,0,0.1,0,0.1,0.1c0,0,0.1,0.1,0.1,0.1c0,0,0,0,0,0c0,0.1,0.1,0.2,0.1,0.2c0.3,0.4,0.7,0.8,1,1.2c1.3,1.6,2.7,3.3,4,4.9"/>
	<path class="st0" d="M33.3,41.1c0.7,0.5,1.4,0.9,2,1.4c2.5,1.7,5.1,3.2,7.6,4.9"/>
	<path class="st0" d="M38.4,47.4c-1.3-1.6-2.7-3.3-4-4.9c-0.3-0.4-0.7-0.8-1-1.2c-0.1-0.1-0.1-0.2-0.1-0.2"/>
	<path class="st0" d="M33.3,41.1c0,0-0.1-0.1-0.1-0.1C33.2,41,33.2,41.1,33.3,41.1z"/>
</g>
<g id="Calque_3">
	<path class="st0" d="M11.9,7.8h2.7l-1.5,7c0,0-0.1,1.3-2.5,1.9"/>
	<path class="st0" d="M17.5,7.8c0,0-0.6,3.4-0.8,5.5s4.4,2.7,5,0.2c0.7-2.9,1.1-5.7,1.1-5.7"/>
	<path class="st0" d="M24.4,14.7c2.3,0.3,5.1,0.7,5.2-1.5s-4.4-1.3-4.3-3.3c0.2-2.7,2.8-2.1,4.9-2.1"/>
	<line class="st0" x1="32.1" y1="7.8" x2="38.4" y2="7.8"/>
	<line class="st0" x1="34" y1="15.1" x2="35.2" y2="7.9"/>
	<line class="st0" x1="32.1" y1="18.5" x2="38.4" y2="18.5"/>
	<line class="st0" x1="34" y1="25.6" x2="35.2" y2="18.7"/>
	<polyline class="st0" points="23,18.5 18.5,18.5 17.5,25.6 21.8,25.6 	"/>
	<line class="st0" x1="21.9" y1="22" x2="18" y2="22"/>
	<path class="st0" d="M24.3,25.6l3.7-7c0.3-0.5,1-0.4,1.2,0.1l1.3,6.8"/>
	<line class="st0" x1="29.8" y1="23.5" x2="25.7" y2="23.5"/>
</g>
</svg>
