<?xml version="1.0" encoding="utf-8"?>
<!-- Generator: Adobe Illustrator 23.0.1, SVG Export Plug-In . SVG Version: 6.00 Build 0)  -->
<svg version="1.1" id="Calque_1" xmlns="http://www.w3.org/2000/svg" xmlns:xlink="http://www.w3.org/1999/xlink" x="0px" y="0px"
	 width="48px" height="48px" viewBox="0 0 48 48" style="enable-background:new 0 0 48 48;" xml:space="preserve">
<style type="text/css">
	.st0{fill:none;stroke:#FFFFFF;stroke-linecap:round;stroke-linejoin:round;stroke-miterlimit:10;}
</style>
<path class="st0" d="M39.6,11.5c-0.1,1.5-1.2,2.1-1.9,3c0.7,1.4,1.4,2.9,0.1,4.5c-1.1-1.1-1.7-2.5-3.3-2.9c-1,1.8-1.8,3.7-3.9,4.5
	c-1.9,0.7-3.8,1-5.8,0.6c-2.1-0.4-3.8-1.5-4.9-3.3c-1.7,1.3-0.9,3.3-1.5,5c-1.5-0.6-2.4-1.6-3.4-2.6c-0.6-0.6-1.2-1.2-1.8-1.8
	c-1.3-1.2-2.3-0.8-2.8,0.9c-0.4,1.7,0.1,5.3,0.4,5.8c0.8,1.5,1.4,3.1,1.7,4.9c0.4,3.3,1.7,6.3,4,8.8c1.7,1.8,3.5,3.4,5.8,4.4
	c0.3,0.1,0.6,0.4,1.2,0.9c-1.9,0.2-3.2-0.5-4.5-1.1c-1.3-0.6-2.5-1.4-4-2.2c-0.8,0.2-1.8,0.4-2.8,0.6c-1.5,0.3-2.9-0.1-4.3-0.4
	c-0.6-0.1-0.8-0.7-0.5-1.4c0.4-1.3,0.9-2.6,1.3-3.9c0.1-0.3,0-0.8,0-1.3c-1.6,0-3.2-0.4-4.5-1.2c-1.1-0.7-1.1-0.8-0.5-2
	c1.2-2.2,2.4-4.3,3.7-6.5c-1-0.8-1.8-1.4-2.7-2.2c0.9-1.1,1.8-2.1,2.6-3.1c1.1-1.3,2-2.8,3.2-4c3.3-3.5,7.2-5.9,12-6.6
	c0.5-0.9,0.9-1.8,1.4-2.6c1.1-1.6,3.6-1.9,4.9-0.5c0.7,0.7,1.2,1.6,1.6,2.4c0.4,0.7,0.8,1.1,1.5,1.4c1.2,0.5,2.4,1,3.7,1.4
	c0.5,0.2,1.1,0.3,1.7,0.3C38,11.6,38.8,11.5,39.6,11.5z M26.6,7.1c-1.1,0-1.4,1.3-1.6,2.2c-0.2,1.3-0.4,2.7-0.6,4.1
	c-0.1,1.2-0.2,2.5-0.2,3.7c0,0.6,0.3,0.9,0.9,1.1c1.3,0.4,2.6,0.3,3.8-0.2c1.2-0.4,1.5-0.9,1.2-2.1c-0.5-2-1-4-1.6-6
	C28.1,8.9,27.7,7.1,26.6,7.1z"/>
<path class="st0" d="M36.5,33.5c-0.1,2.6-1.9,4.8-4.4,5c-1.4,0.1-2.7-0.4-3.7-1.5c-0.8-0.9-1.4-1.9-1.4-3.2c0-0.7,0.3-1.1,1-1.2
	c0.5,0,1.1,0,1.6,0c1.7-0.1,3.4-0.3,5.1-0.5C36.3,31.8,36.5,31.9,36.5,33.5z M29.2,35.1c1.1,2.6,2.9,2.6,4.6,0.5
	C31.9,34.6,30.9,34.6,29.2,35.1z"/>
<path class="st0" d="M24.6,26.5c-1.6-0.1-3,0.6-4.3,1.4c-0.4-2,0.3-2.8,1.6-3.4C22.3,24.4,24.3,24.9,24.6,26.5z"/>
<path class="st0" d="M35.9,24.7c-1.6-0.5-3-0.2-4.5,0.2c0.1-2,1.1-2.6,2.4-2.8C34.3,22,36.1,23,35.9,24.7z"/>
<path class="st0" d="M12,20.1c0.7,0.5,1.4,1.6,2.1,2.1c-0.6,1.2-0.6,1.2-1.2,2.2C11.6,24.1,11.7,21.1,12,20.1z"/>
<path class="st0" d="M23.6,30.2c3.7-2.5,17.6-6.4,17.8,1.2c0.2,9.6-11.3,10.9-17.4,10.3"/>
</svg>
