<?xml version="1.0" encoding="utf-8"?>
<!-- Generator: Adobe Illustrator 23.0.1, SVG Export Plug-In . SVG Version: 6.00 Build 0)  -->
<svg version="1.1" id="Calque_1" xmlns="http://www.w3.org/2000/svg" xmlns:xlink="http://www.w3.org/1999/xlink" x="0px" y="0px"
	 width="48px" height="48px" viewBox="0 0 48 48" style="enable-background:new 0 0 48 48;" xml:space="preserve">
<style type="text/css">
	.st0{fill:none;stroke:#FFFFFF;stroke-miterlimit:10;}
</style>
<g>
	<path class="st0" d="M0.9,34.3c0.1-3.8,0-7.6,0.2-11.5C1.6,14,5.9,7.6,13.8,3.6c13.5-7,29.7,1.2,32.8,15.7
		c2.6,12.3-5.4,24.7-17.7,27.3C26.5,47,24.2,47,21.8,47c-6.7,0-19.6,0-20.8,0C1,45.7,1,38.3,0.9,34.3C1,34.3,1,34.3,0.9,34.3z
		 M14.9,37.6c6.6,5.8,17.7,3.6,22-4.8c0,0-0.1-0.1-0.1-0.1c-2.3-1.2-4.8-2.3-7.3-2.9c-2.7-0.6-5.4-0.5-7.9,0.8
		C18.6,32.3,16.7,34.8,14.9,37.6z M18.8,25.9c0.1,0,0.1,0,0.2-0.1c3.6-2.4,4.7-5.2,4.1-8.9c-0.5-3-1.7-5.7-2.8-8.5
		c-0.1-0.1-0.3-0.3-0.4-0.3c-0.8,0-1.5,0-2.3,0.2c-2.1,0.4-3.1,1.5-3,3.7c0.1,1.4,0.3,2.8,0.7,4.2c0.9,2.8,2,5.6,3,8.4
		C18.4,25.1,18.6,25.5,18.8,25.9z M28.2,24.8c0.2,0.1,0.3,0.2,0.5,0.3c2,0.7,3.9,1.5,5.9,2.1c1.1,0.4,2.3,0.5,3.6,0.4
		c1.2-0.1,1.9-0.7,2.1-1.8c0.1-0.5,0.1-0.9,0.1-1.4c-0.1-2.1-0.9-4.1-1.7-6c-0.4-1-0.9-2-1.4-3.1C34.2,18.5,31.3,21.7,28.2,24.8z
		 M9.4,14.9c0,0-0.1,0-0.1,0c-0.2,0.6-0.5,1.1-0.7,1.7c-1,2.9-1.2,5.9-0.9,8.9c0.2,2.2,0.7,4.4,1.8,6.4c0.3,0.6,0.8,1.2,1.2,1.8
		c1.5-1,2.5-2.2,2.8-3.9c0.3-1.5,0.2-3-0.3-4.4c-0.8-2.4-1.7-4.8-2.6-7.2C10.2,17,9.8,16,9.4,14.9z M33.4,11.7
		c-2.6-2.1-5.5-3.3-8.8-3.7c0.1,0.2,0.1,0.4,0.2,0.6c0.8,2.5,1.6,5.1,2.4,7.6c0.3,0.9,0.9,1.1,1.6,0.4c1.2-1.2,2.4-2.4,3.6-3.6
		C32.8,12.5,33.1,12.1,33.4,11.7z"/>
</g>
</svg>
