<?xml version="1.0" encoding="utf-8"?>
<!-- Generator: Adobe Illustrator 23.0.1, SVG Export Plug-In . SVG Version: 6.00 Build 0)  -->
<svg version="1.1" id="Calque_1" xmlns="http://www.w3.org/2000/svg" xmlns:xlink="http://www.w3.org/1999/xlink" x="0px" y="0px"
	 width="48px" height="48px" viewBox="0 0 48 48" style="enable-background:new 0 0 48 48;" xml:space="preserve">
<style type="text/css">
	.st0{fill:#FFFFFF;}
</style>
<g>
	<path class="st0" d="M33.6,27.1c-0.6,1.6-1.3,3.1-2.1,4.1C31.3,31.6,31,32,31,32.1s0,0.1,0,0.1c0.1,0,1.1-1.4,1.6-2.3
		c0.8-1.3,1.3-2.7,1.4-3.7C34.1,25.9,33.9,26.2,33.6,27.1z"/>
	<path class="st0" d="M19.3,23.8c0.1,0.2,2.4-0.1,4.2-0.5c1.4-0.3,3.8-1.2,3.8-1.4c0,0-0.1,0-0.1,0c-4,1.3-4.9,1.5-6.7,1.6
		C19.4,23.6,19.2,23.6,19.3,23.8z"/>
	<path class="st0" d="M33.1,15.7c0.6,0.2,0.6,0.3,0.2,0.7c-0.5,0.5-0.4,0.6,0.1,0.3c0.2-0.1,0.4-0.3,0.4-0.3c0,0,0.1,0.3,0.1,0.6
		c0.1,0.5,0.1,0.6,0.3,0.6c0.2,0,0.2,0,0.1-0.7l-0.1-0.7l0.4,0.2c0.5,0.2,0.7,0.2,0.9,0c0.1-0.1,0.1-0.2-0.3-0.3
		c-0.2-0.1-0.5-0.2-0.6-0.2c-0.2-0.1-0.1-0.1,0.2-0.5c0.2-0.2,0.4-0.4,0.4-0.5c0-0.2-0.3,0-0.7,0.3l-0.4,0.3L34,14.9
		c-0.1-0.4-0.1-0.6-0.2-0.6c-0.1,0-0.1,0.1-0.1,0.6c0,0.3,0,0.6,0,0.6c0,0-0.3-0.1-0.5-0.2c-0.3-0.1-0.5-0.1-0.5-0.1
		C32.5,15.3,32.7,15.5,33.1,15.7z"/>
	<path class="st0" d="M31.5,19c0,0.1,0.1,0,0.3-0.1c0.1-0.1,0.1-0.1,0.3,0c0.2,0.1,0.3,0,0-0.2c-0.2-0.1-0.1-0.2,0-0.3
		c0.2-0.2,0-0.3-0.2-0.1c-0.1,0.1-0.1,0.3-0.3,0.1c-0.1-0.1-0.2,0-0.2,0s0.1,0.1,0.1,0.1c0.1,0,0.1,0.1,0,0.2
		C31.6,18.8,31.5,18.9,31.5,19z"/>
	<path class="st0" d="M26.2,17.3c0.1-0.2-0.6-0.1-1,0.1c-0.2,0.1-0.3,0.2-0.4,0.1c-0.1,0-0.4,0.1-0.9,0.3c-0.4,0.2-0.7,0.3-0.8,0.3
		S23,18.3,23,18.3c0,0.2,0.1,0.2,1,0C24.8,18.2,26.2,17.6,26.2,17.3z"/>
	<path class="st0" d="M25.5,18.7c-0.4,0.2-0.7,0.3-1.4,0.3l-0.8,0l0.4,0.1c0.8,0.2,1.6,0.1,2.1-0.4C26.3,18.4,26.2,18.3,25.5,18.7z"
		/>
	<path class="st0" d="M23.6,6l0.5,0.7l-0.3,0.7c-0.4,0.9-0.5,1.5-0.5,2.6c0,1.5,0.4,3.2,1.3,5c0.2,0.5,0.4,0.9,0.4,0.9
		c0,0-0.2,0.2-0.5,0.3c-0.5,0.2-0.7,0.4-0.4,0.4c0.1,0,1.2-0.5,1.3-0.5c0,0-0.2-0.5-0.5-1.1c-1-2-1.4-3.6-1.4-5.2
		c0-1,0.2-1.7,0.5-2.5l0.2-0.4l0.6,1.3c1.5,3.1,2.5,7.3,2.8,12.4c0,0.6,0.1,0.9,0.2,0.9c0.2-0.1,0.1-1.4-0.2-3.6
		c-0.5-4.3-1.4-7.3-2.7-9.9l-0.6-1.1l0.3-0.4L24.9,6l-0.3,0.3l-0.3,0.3l-0.6-0.8c-0.7-0.9-2.1-2.6-2.3-2.7c-0.1,0,0.3,0.5,0.8,1.1
		C22.7,4.8,23.4,5.7,23.6,6z"/>
	<path class="st0" d="M33,12.4c0.3-0.1,0.2,0,0.3,0.2c0.1,0.3,0.3,0.2,0.2,0c0-0.3,0-0.3,0.2-0.4c0,0,0.2-0.1,0.2-0.2
		c0-0.1-0.2,0-0.2,0c-0.1,0-0.3,0.2-0.3-0.1c0-0.1-0.2-0.2-0.2,0.1c0.1,0.2,0,0.2-0.2,0.3c0,0-0.2,0.1-0.2,0.2
		C32.8,12.4,33,12.4,33,12.4z"/>
	<path class="st0" d="M35,19.4c0,0,0.2,0,0.2-0.1c0-0.1-0.2-0.1-0.2-0.1c-0.2,0-0.2-0.2-0.2-0.3s0-0.2-0.1-0.2s-0.1,0.1-0.1,0.2
		c0,0.2-0.1,0.2-0.2,0.2c-0.1,0-0.2,0-0.3,0.1c0,0.1,0,0.1,0.2,0.1c0.2,0,0.3,0,0.3,0.2c0,0.1,0,0.2,0.1,0.2s0.1-0.1,0.1-0.3
		C34.8,19.4,34.7,19.4,35,19.4z"/>
	<path class="st0" d="M40.4,27.5c-0.9,1.5-1.4,2.2-2.8,3.5c-0.7,0.7-1.3,1.3-1.3,1.3c0,0.1,0.9-0.6,1.9-1.5c1-0.9,1.8-2,2.4-3.1
		c0.4-0.8,1.3-1.8,1.9-2.2c0.4-0.3,0.2-0.4-0.3-0.1C41.5,25.9,41,26.4,40.4,27.5z"/>
	<path class="st0" d="M41.4,12.4c0.2-0.1,0.2,0,0.3,0.2c0,0,0.1,0.2,0.1,0.2c0.1,0,0.1-0.2,0.1-0.2c-0.1-0.3,0.1-0.2,0.2-0.3
		c0.1,0,0.2-0.1,0.2-0.1c0,0-0.1-0.1-0.2,0c-0.1,0-0.3,0.1-0.3-0.2c-0.1-0.2-0.2-0.2-0.2,0c0,0.1,0.1,0.3-0.2,0.4
		C41.1,12.3,41.1,12.5,41.4,12.4z"/>
	<path class="st0" d="M42,16.2c0,0.2-0.2,0.2-0.4,0.1c-0.3-0.1-0.3,0.1-0.1,0.1c0.2,0.1,0.3,0.1,0.2,0.4c-0.1,0.4,0.1,0.4,0.2,0
		c0.1-0.3,0.1-0.3,0.3-0.3c0.4,0.1,0.5-0.1,0.1-0.2c-0.3-0.1-0.2-0.1-0.2-0.3C42.3,16,42.1,15.9,42,16.2z"/>
	<path class="st0" d="M38.3,32.7c-0.4,0.4-0.7,0.8-0.7,0.9c0.1,0.1,1.8-1.7,2.5-2.8c0.8-1.1,2.9-5.2,2.8-5.3c-0.1-0.1-0.4,0.3-2,3.4
		C40.1,30.5,39.3,31.6,38.3,32.7z"/>
	<path class="st0" d="M39,10.4c0.1,0,0.2,0,0.2-0.1c0.1-0.1,0.2-0.1,0.2,0c0.1,0.2,0.3,0.2,0.2-0.1c-0.1-0.2,0-0.2,0.2-0.3
		c0.2-0.2,0.2-0.2,0.1-0.3c-0.1-0.1-0.2,0-0.4,0.2c-0.1,0.1-0.2,0.1-0.2-0.1c-0.1-0.1-0.2-0.2-0.2-0.1c-0.1,0-0.1,0.1,0,0.2
		c0.1,0.2,0.2,0.2-0.1,0.4C38.9,10.3,38.9,10.4,39,10.4z"/>
	<path class="st0" d="M35.7,23.7c0.1,1.1,1.3,4.6,1.7,5c0.3,0.4,0.1-0.3-0.4-1.8c-0.6-1.7-1.1-3.1-1.2-3.8c0-0.2-0.1-0.4-0.1-0.5
		c0,0-0.1,0.1,0,0.2S35.7,23.4,35.7,23.7z"/>
	<path class="st0" d="M35.8,12.9c0,0.1,0.2,0.1,0.3-0.1c0.1-0.2,0.1-0.2,0.3-0.1c0.1,0.1,0.2-0.1,0.1-0.2c-0.1-0.1-0.1-0.1,0-0.2
		c0.1-0.1,0.1-0.1,0.1-0.2c0-0.1,0-0.2-0.2,0c-0.2,0.2-0.2,0.2-0.4,0.1c-0.2-0.1-0.2,0-0.1,0.2c0.1,0.1,0.1,0.1,0,0.3
		C35.9,12.8,35.8,12.9,35.8,12.9z"/>
	<path class="st0" d="M36.7,18c-0.2,0.2-0.1,0.3,0.2,0.1c0.1-0.1,0.2-0.1,0.2,0c0.1,0.2,0.3,0.2,0.2-0.1c-0.1-0.1-0.1-0.2,0-0.3
		c0.1,0,0.1-0.1,0.1-0.2c0-0.1-0.1-0.1-0.2,0c-0.2,0.2-0.2,0.1-0.4,0c-0.2-0.1-0.3,0-0.1,0.2C36.8,17.8,36.8,17.9,36.7,18z"/>
	<path class="st0" d="M37.5,15.6c0,0.2,0,0.3,0.1,0.3s0.1-0.1,0.1-0.3c0-0.2,0-0.3,0.2-0.3c0.1,0,0.2,0,0.2-0.1S38,15.2,38,15.2
		c-0.1,0-0.1,0-0.1-0.1c0-0.1-0.1-0.2-0.1-0.2c-0.1,0-0.1,0.2-0.1,0.2c0,0.1-0.1,0.1-0.3,0.1c-0.1,0-0.2,0-0.2,0.1
		c0,0.1,0.1,0.1,0.3,0.1C37.5,15.4,37.5,15.4,37.5,15.6z"/>
	<path class="st0" d="M42.4,31.8c-1.7,2.1-3.7,3.8-5.3,4.6c-0.3,0.1-0.6,0.4-0.8,0.6l-0.3,0.3l1-0.5c1.6-0.8,2.7-1.6,4-2.9
		c0.8-0.8,1.4-1.5,1.8-2.2c0.4-0.5,0.7-1,0.7-1.1S43,31.1,42.4,31.8z"/>
	<path class="st0" d="M36.2,28.7c0-0.1-0.2-0.6-0.5-1.2c-0.7-1.8-0.9-3.3-0.6-4.3c0.1-0.3,0.1-0.5,0-0.5c-0.2-0.1-0.3,0.5-0.4,1.4
		c-0.1,1.1,0.1,1.9,0.7,3.5c0.2,0.6,0.4,1.1,0.4,1.2c0,0.1-2.1,1.3-2.1,1.3c0,0,0.1-0.4,0.2-0.8c0.3-1.1,0.5-2.2,0.6-3.8
		c0.1-1.5,0.1-3.7-0.1-3.9c-0.1-0.1-0.1,0.2-0.1,1.5c0,2.3-0.2,4.4-0.9,6.6c-0.3,0.8-0.3,0.9-1.1,1.7c-0.5,0.5-0.9,0.9-1,1
		s0.2-0.1,0.6-0.5c0.4-0.4,0.8-0.7,0.9-0.8c0.2-0.1,0.2-0.2-0.8,2.5c-0.6,1.5-1.6,5.6-1.7,6.1s-0.2,0.9-0.3,1.9c0,0.2,0,0.3-0.1,0.5
		l-0.1,0.8l0,0c-0.1,1.8-0.1,3.3,0,4.4l0.1,0.4l0.1-0.3c0.1-0.2,0.1-0.6,0.1-1.4c-0.1-1.4,0-2.6,0.1-3.8c0,0,0,0,0-0.1
		c0,0,0-0.1,0-0.2c0-0.1,0-0.2,0-0.4c0.1-0.9,0.4-2.5,0.7-3.7c0.4-1.5,1.5-5,2.1-6.4c0.4-0.9,0.5-1.1,2-1.9
		C35.9,29,36.2,28.8,36.2,28.7z"/>
	<path class="st0" d="M17.4,12.6c-0.6,0.4-0.6,0.6-0.2,0.7c0.1,0,0.6,0.1,1,0.1c1.1,0,1.7-0.2,2.3-0.8c0.3-0.3,0.4-0.4,0.1-0.2
		c-0.2,0.1-0.6,0.3-0.9,0.4c-0.7,0.2-2.1,0.4-2.2,0.2c0-0.1,0.2-0.3,0.5-0.5c0.6-0.4,1.3-0.7,1.8-0.7c0.3,0,0.3,0,0.1-0.1
		C19.5,11.5,18.4,11.9,17.4,12.6z"/>
	<path class="st0" d="M33.9,25.4c0.1-0.4,0.1-0.5-0.7,0.7c-0.3,0.4-1.2,1.5-2,2.6c-2.7,3.3-4.2,5.4-4.1,5.9c0,0.2,0.2,0,0.5-0.6
		c0.7-1.2,1.6-2.5,3.6-4.9C33.3,26.6,33.9,25.8,33.9,25.4z"/>
	<path class="st0" d="M39.7,26.4c0.3-0.7,0.8-1.4,1-1.7c0.5-0.6,1.3-1.2,1.5-1.2c0,0-0.2,0.6-0.5,1.2c-0.6,1.1-0.7,1.4-0.5,1.3
		c0.1-0.1,1-1.6,1.1-2.1c0.1-0.4,0.1-0.4,0-0.6c-0.2-0.2-0.5-0.1-1.3,0.7c-0.9,0.8-1.4,1.7-2,2.8c-0.8,1.7-1.7,2.8-3.5,4.1
		c-0.5,0.3-0.9,0.6-0.9,0.7c0,0.2,2.1-1.3,2.9-2.1C38.3,28.7,38.8,28,39.7,26.4z"/>
	<path class="st0" d="M45.8,14.4c-0.2-0.1-0.4-0.1-0.3-0.3c0.1-0.2-0.1-0.3-0.2-0.1c-0.1,0.3-0.2,0.2-0.4,0.2c0,0-0.2-0.1-0.3,0
		c0,0.1,0.2,0.1,0.2,0.1c0.2,0.1,0.4,0,0.3,0.3c0,0.1,0.1,0.1,0.2,0c0.1-0.2,0.1-0.2,0.3-0.1c0.3,0.1,0.3,0.1,0.3,0
		C46,14.5,46,14.4,45.8,14.4z"/>
	<path class="st0" d="M43.8,29.8c-0.5,0.1-1.3,0.4-1.7,0.7c-0.2,0.2-0.6,0.6-1,1c-0.7,0.9-1.3,1.4-2.4,2c-0.4,0.2-0.8,0.5-0.9,0.5
		c-0.4,0.2,0.1,0.1,0.9-0.3c1.1-0.5,1.8-1.1,2.7-2.1c0.8-0.9,1.4-1.4,2.2-1.7C44,29.8,44,29.8,43.8,29.8z"/>
	<path class="st0" d="M44.6,9.7c-0.1,0-0.3,0.1-0.4-0.2c-0.1-0.3-0.3-0.3-0.2,0c0.1,0.2,0,0.2-0.2,0.3c-0.4,0.1-0.4,0.3,0.1,0.2
		c0.3-0.1,0.3-0.1,0.3,0.1c0.1,0.2,0.1,0.2,0.1,0.2c0.1,0,0.1-0.2,0.1-0.3c-0.1-0.2,0.1-0.2,0.2-0.2C45,9.8,45,9.6,44.6,9.7z"/>
	<path class="st0" d="M19.9,33.4c-0.4-0.3-0.9-0.7-1-0.8c-0.2-0.2-0.2-0.2,0.1-0.6c0.8-1.1,1.9-3.4,2.6-5.6c0.5-1.7,0.4-1.5-0.3,0.5
		c-0.9,2.4-1.9,4.5-2.6,5.4c-0.1,0.2-0.2,0.2-0.9-0.3c-0.7-0.4-1.1-0.6-1.1-0.4c0,0.1,0.3,0.3,0.7,0.5c0.4,0.2,0.7,0.4,0.7,0.5
		c0,0,0,0.2-0.1,0.4c-0.3,0.5-0.2,0.6,0.1,0.2l0.3-0.4L19,33c0.3,0.2,0.8,0.6,1.3,1c1,0.8,1.7,1.7,3.2,3.5c0.4,0.6,0.6,0.6,0.3,0.1
		C22.9,36.3,21.2,34.5,19.9,33.4z"/>
	<path class="st0" d="M14.9,1.3C16.5,1,17.9,1.3,19,2c0.8,0.5,1.2,0.4,0.4-0.2c-1.3-0.9-3.5-1.1-5.2-0.6C13.6,1.4,14,1.5,14.9,1.3z"
		/>
	<path class="st0" d="M8.2,14.3c1.2-0.9,1.4-1.3,1.6-2.5c0.1-0.4,0.2-0.8,0.3-1c0.4-0.8,1.4-1.5,2.9-2c0.7-0.2,0.7-0.3,0.6-0.4
		c-0.2-0.1-0.7,0.1-1.9,0.6c-1.4,0.7-1.9,1.3-2.1,2.6c-0.2,1.2-0.4,1.6-1.5,2.4c-1.6,1.2-1.7,1.3-1.7,3.5c0,1.4,0,1.7-0.2,2
		c-0.1,0.2-0.6,0.7-1.1,1.1c-0.7,0.7-1,1-1.2,1.4c-0.4,0.9-0.5,1.9-0.2,3.3C4,25.9,4,26.6,4,27.1c0,0.8,0,0.7-1,2.7
		c-0.2,0.4-0.3,0.6-0.3,1.3c0,1.1,0.2,1.6,1.1,2.9c0.7,1,0.7,1.1,0.7,1.7c0,0.6,0.1,0.8,0.3,0.6c0-0.1,0.1-0.3,0.1-0.6
		c0-0.5-0.3-1.2-0.8-1.9c-0.8-1-1.2-2.2-1-3.1c0.1-0.6,0.2-0.7,0.9-2.1c0.3-0.7,0.4-0.8,0.4-1.4c0-0.3-0.1-1-0.2-1.4
		C4,25.2,4,24.7,4,23.9c0-1.6,0.1-1.9,1.6-3.3c1-1,1.1-1.1,1.2-1.6c0.1-0.3,0.1-0.7,0-1.2C6.5,15.9,6.7,15.5,8.2,14.3z"/>
	<path class="st0" d="M19.3,11.2c0.5-0.1,0.6-0.2,0.4-0.2c-0.5,0-1.5,0.3-2,0.7c-0.6,0.3-0.9,0.7-0.9,0.8c0,0,0.3-0.1,0.6-0.3
		C18.2,11.6,18.5,11.5,19.3,11.2z"/>
	<path class="st0" d="M4.7,17.4c-0.6,0.6-0.9,1.2-1,1.8c0,0.3,0,0.4,0.1,0.4c0.1,0,0.1-0.1,0.1-0.3c0-0.4,0.4-1.2,0.8-1.6
		c0.8-0.7,0.8-0.8,0.8-2.6c0-1.6,0-1.6,0.3-2.3c0.4-0.8,0.9-1.3,2.1-2c1.1-0.7,1.4-1,1.7-1.7c0.3-1,0.8-1.9,1.2-2.3
		C11.3,6.5,12.1,6,13,5.8c0.4-0.1,0.5-0.2,0.5-0.3s-0.3,0-0.8,0.1c-0.9,0.3-1.4,0.5-1.9,1c-0.5,0.5-0.8,0.9-1.2,2
		c-0.4,1-0.7,1.4-1.8,2c-1.2,0.7-1.7,1.2-2.2,2.1l-0.2,0.7c-0.3,1.1,0,2.4-0.2,3.4C5.1,17.1,4.7,17.4,4.7,17.4z"/>
	<path class="st0" d="M19.3,9.6c-1.8,0.3-4.4,1.5-4.2,2c0.1,0.2,0.1,0.2,0.8-0.3c0.7-0.5,2.2-1.2,3.1-1.4C19.8,9.6,20,9.5,19.3,9.6z
		"/>
	<path class="st0" d="M16.3,2.9c0.6,0.3,0.8,0.3,0.6,0.1c-0.1-0.1-0.4-0.3-0.7-0.4c-0.7-0.3-1.4-0.3-2.2-0.1
		c-0.5,0.1-0.8,0.2-1.6,0.1c-1-0.1-1.1-0.1-1.5,0.2c-0.6,0.3-1.2,1.1-1.7,1.9C8.8,5.5,8.1,6.2,6.9,6.9c-1.4,0.9-1.8,1.2-2.2,2
		c-0.5,1-0.6,1.9-0.6,3.4c0,1.8-0.3,3-1.4,4.8c-0.8,1.3-1,2-1,3.1c0,0.9,0.1,1.6,0.7,3.2c0.5,1.6,0.5,2.1-0.4,4.1
		c-0.4,1-0.5,1.8-0.4,2.4c0.2,0.6,0.3,0.4,0.2-0.5c0-0.8,0-0.9,0.3-1.6c0.7-1.7,0.9-2.1,0.8-3c0-0.6-0.1-1.1-0.4-2
		c-0.5-1.5-0.5-1.6-0.5-2.5c0-1,0.2-1.6,1.1-3.4c1.1-2.1,1.2-2.5,1.3-4.6c0.1-2.2,0.4-3.2,1-4.1c0.1-0.2,0.8-0.7,1.5-1.2
		c1.6-1,2.1-1.6,2.7-2.4c0.7-1.2,1.4-1.8,2.1-1.8c0.2,0,0.7,0,1,0.1c0.5,0.1,0.8,0,1.4-0.1C15,2.5,15.6,2.6,16.3,2.9z"/>
	<path class="st0" d="M12,18.8c-0.6-0.6-1-1.4-1-1.9c0-0.5,0.2-0.7,0.7-0.7c0.3,0,0.3,0,0.2-0.1c-0.3-0.1-0.9,0.1-1.1,0.4
		c-0.2,0.3-0.1,0.9,0.2,1.4c0.3,0.6,1.2,1.5,1.9,1.8c0.6,0.3,0.7,0.3,0.9,0.2c0.2-0.1,0.1-0.2-0.1-0.2C13.3,19.7,12.5,19.2,12,18.8z
		"/>
	<path class="st0" d="M10.4,14.3c-0.5,0.8-0.7,1.6-0.7,2.9c0,1.5,0,1.5-1.3,3.5c-1.1,1.7-1.4,2.4-1.3,3.5c0,0.5,0.1,0.9,0.4,1.4
		c0.6,1.3,0.6,2.1-0.2,3.9c-0.6,1.3-0.6,1.6,0.3,3.5c0.7,1.6,0.9,2.2,0.7,2.9c-0.2,0.7-0.4,1-0.8,1.2c-0.2,0.1-0.4,0.3-0.4,0.3
		c0,0.2,0.4,0,0.8-0.3c0.6-0.5,0.8-1.2,0.8-2.1c0-0.6-0.1-0.8-0.7-2.2c-0.9-1.8-0.9-2-0.5-3.1c1-2.2,1-2.6,0.3-4.3
		c-0.4-0.9-0.4-1.2-0.4-1.8c0-0.9,0.2-1.4,1.6-3.5c1.1-1.7,1.2-1.9,1-3.3c-0.1-1-0.1-1.5,0.4-2.5C10.7,13.9,10.7,13.8,10.4,14.3z"/>
</g>
<path class="st0" d="M29.2,46.9c-0.5-0.7-0.9-1.1-1.6-1.4c-0.4-0.2-0.5-0.3-0.5-0.5c-0.1-0.4-0.2-0.4-0.4,0
	c-0.1,0.3-0.2,0.3-0.4,0.2c-0.2-0.1-0.6-0.6-0.8-1l-0.2-0.4L25.3,44c-0.1,0.1-0.2,0.3-0.2,0.3c-0.2,0-0.9-0.8-1.1-1.2
	c-0.2-0.3-0.3-0.5-0.3-0.3c0,0-0.1,0.2-0.1,0.4c-0.1,0.3-0.2,0.4-0.4,0.2c-0.3-0.2-1.1-1.2-1.3-1.8c-0.2-0.4-0.2-0.5,0-0.6
	c0.1-0.1,0.4-0.1,1-0.1c0.9,0,1.4,0.2,1.4,0.5c0,0.1,0,0.1,0.3,0.1c0.4-0.1,1.1-0.1,1.4,0C26,41.6,26,41.7,26,42l-0.1,0.4l0.6,0
	c0.6,0,1.1,0.1,1.1,0.3c0,0.2-0.5,0.7-0.6,0.6c0-0.1,0-0.2,0.1-0.3c0.2-0.2,0.1-0.2-0.2-0.3c-0.2,0-0.5-0.1-0.8-0.1h-0.5l0.1-0.4
	c0-0.4,0-0.4-0.2-0.4c-0.1,0-0.6,0-1,0c-0.7,0-0.7,0-0.8-0.2c-0.1-0.3-0.2-0.3-1.2-0.3l-0.9,0l0.3,0.5c0.3,0.5,1.1,1.5,1.2,1.5
	c0,0,0.2-0.2,0.2-0.5c0.1-0.3,0.2-0.5,0.2-0.5c0,0,0.2,0.2,0.3,0.5c0.1,0.3,0.4,0.7,0.6,0.9L25,44l0.2-0.5c0.2-0.3,0.3-0.4,0.3-0.3
	c0,0.1,0.1,0.4,0.2,0.7c0.1,0.3,0.3,0.6,0.4,0.8l0.2,0.2l0.2-0.4c0.2-0.5,0.4-0.4,0.6,0.2c0.1,0.2,0.2,0.4,0.2,0.4
	c0.1,0,0.3,0.2,0.6,0.3c0.3,0.2,0.5,0.3,0.5,0.3c0-0.1-1.1-1.4-1.7-1.9c-1.2-1-2.6-1.8-3.9-2.1c-0.6-0.2-1.3-0.5-0.8-0.4
	c0.7,0.1,1.9,0.6,2.7,1c1.5,0.7,2.9,1.8,3.7,3.2c0.4,0.6,1,1.9,1,1.9C29.6,47.5,29.4,47.2,29.2,46.9z"/>
<path class="st0" d="M31.2,45.6c0-0.2,0.4-1,0.9-1.8c1.2-1.8,2.7-3.3,4.3-4c1.1-0.6,1.7-0.7,0.8-0.2c-2.3,1.3-4.3,3.1-5.4,5.2
	l-0.3,0.6l0.9-0.9c0.5-0.5,0.9-1,0.9-1.1c0-0.3,0.1-0.6,0.3-0.6c0.1,0,0.3,0.1,0.4,0.1l0.3,0.1l0.3-0.6c0.1-0.3,0.3-0.7,0.3-0.8
	c0-0.2,0.2-0.2,0.5,0c0.1,0.1,0.3,0.1,0.3,0.1c0,0,0.3-0.4,0.6-0.8l0.5-0.8l0.3,0.2c0.2,0.1,0.3,0.1,0.4,0c0.2-0.1,0.7-1,0.7-1.1
	c0-0.1-1.3-0.3-1.7-0.3c-0.3,0-0.4,0.2-0.2,0.6c0.1,0.1,0,0.2-0.6,0.3c-0.3,0.1-0.8,0.2-1.1,0.3L34,40.3l0.2,0.4l0.2,0.4L33.7,41
	c-0.4,0-0.9,0.1-1.1,0.2l-0.4,0.2l0.4,0.3c0.2,0.2,0.4,0.3,0.4,0.4c0,0.2-0.3,0.1-0.7-0.3l-0.5-0.4l0.6-0.2c0.3-0.1,0.7-0.2,0.9-0.3
	c0.6-0.1,0.6-0.1,0.4-0.4c-0.1-0.1-0.2-0.3-0.2-0.3c0.1-0.1,1.3-0.5,1.8-0.6l0.5-0.1l-0.1-0.3c-0.2-0.4-0.1-0.5,1.1-0.4
	c1,0.1,1.4,0.2,1.4,0.4c0,0.1-0.2,0.5-0.5,0.9l-0.5,0.8L37,40.6l-0.3-0.2l-0.5,0.9c-0.3,0.5-0.5,0.9-0.6,0.9c0,0-0.1-0.1-0.3-0.1
	c-0.3-0.2-0.4-0.2-0.5,0.2c-0.1,0.2-0.2,0.5-0.3,0.7l-0.2,0.4L34,43.2c-0.5-0.2-0.5-0.2-0.4,0.2c0.1,0.3,0,0.3-0.1,0.4
	c-0.1,0-0.6,0.5-1.1,1C31.5,45.7,31.2,45.9,31.2,45.6z"/>
</svg>
