<?xml version="1.0" encoding="utf-8"?>
<!-- Generator: Adobe Illustrator 23.0.1, SVG Export Plug-In . SVG Version: 6.00 Build 0)  -->
<svg version="1.1" id="Calque_1" xmlns="http://www.w3.org/2000/svg" xmlns:xlink="http://www.w3.org/1999/xlink" x="0px" y="0px"
	 width="48px" height="48px" viewBox="0 0 48 48" style="enable-background:new 0 0 48 48;" xml:space="preserve">
<style type="text/css">
	.st0{fill:none;stroke:#FFFFFF;stroke-miterlimit:10;}
	.st1{fill:none;stroke:#F9FBFB;stroke-miterlimit:10;}
</style>
<g>
	<g>
		<path class="st0" d="M14.5,42.9c2.2,2.1,5.6,3.6,6.2,3.7c2.5,0.5,6.7,0.4,7.9,0.2c2.1-0.3,5.5-1.5,7.8-4.4
			c2.1-2.6,3.2-5.5,3.2-8.9c0-1.9,0-8.1,0-9.8c-12.4,0-14.7,9.1-15.5,13.1c-0.3-0.5-0.6-1.1-0.8-1.6c-1-2.3-2.3-4.5-4.3-6
			c-1.2-0.8-3.8-2.5-8.2-2.5c0,2.2-0.3,8.7,0.5,10.8c0.2,0.5,0.3,0.9,0.6,1.4C12.5,40.4,13.3,41.8,14.5,42.9"/>
		<path class="st0" d="M39.1,8.9c-0.2,0.9,0.2,1.6,1,2.2c0.6,0.5,0.7,0.7,0.1,1.2c-0.9,0.9-1.2,1.9-1.1,3.1c0.1,0.9,0,0.9-1,0.9
			c-0.2,0-0.3,0-0.5,0c-0.9-0.1-1.7,0.2-2.3,0.9c-0.6,0.7-0.8,0.7-1.4,0c-0.8-1-1.8-0.9-2.9-1c-1,0-1-0.1-1-1c0-0.3,0-0.5,0-0.8
			c0.1-0.7-0.1-1.3-0.7-1.8c-0.2-0.1-0.3-0.4-0.4-0.5c-0.4-0.4-0.3-0.8,0.1-1.1c0.9-0.7,1.2-1.5,1.1-2.6c0-0.2,0-0.5,0-0.7
			c0-0.4,0.2-0.6,0.6-0.6s0.8-0.1,1.3,0c0.7,0.1,1.3-0.2,1.7-0.7c0.1-0.1,0.2-0.2,0.2-0.2c0.7-0.8,0.8-0.8,1.5,0
			c0.6,0.7,1.3,1.1,2.3,0.9c0.1,0,0.2,0,0.3,0c1.2,0,1.2,0,1.2,1.2C39.1,8.6,39.1,8.7,39.1,8.9z"/>
		<path class="st1" d="M9.9,13.1c-1.8-0.5-2.8-2.4-2.5-4.3C7.7,7,9.2,5.8,11,5.7c1.9-0.2,3.6,1.3,4,2.8c0.1,0.2,0.1,0.5,0.2,0.7
			c0.2,0,0.4,0.1,0.6,0.1c1,0.4,1.6,1.4,1.5,2.3c-0.2,1.2-1,1.7-2.3,1.7C14.3,13.3,10.9,13.4,9.9,13.1z"/>
		<path class="st1" d="M21,17.8c-0.9,0-1.6-0.8-1.3-1.7c0.2-0.8,0.9-1.1,1.2-1.1c0.1-0.7,0.4-1.2,0.6-1.5c0.2-0.5,1.4-1.3,2.8-1
			c1,0.2,1.9,1.2,2,2.4s-0.3,3-1.9,3C23.6,17.8,21.6,17.8,21,17.8z"/>
		<path class="st0" d="M14.7,43.3H7.8c-2.8,0-5.1-2.3-5.1-5.1V6.5c0-2.8,2.3-5.1,5.1-5.1h31.9c2.8,0,5.1,2.3,5.1,5.1v31.7
			c0,2.8-2.3,5.1-5.1,5.1h-4.4"/>
		<path class="st1" d="M39.6,27.2c2-0.3,3.9-0.8,5.7-1.5"/>
		<path class="st1" d="M2.7,24.6c6.9-3,8.9-2.1,12.4-2s9.1,5,13.3,5.1"/>
		<line class="st1" x1="24.1" y1="36.9" x2="24.1" y2="46.8"/>
		<path class="st1" d="M39.6,28c-3,0-10.8,5.7-10.8,12c0,1.9-0.2,4.2-0.2,6.8"/>
		<path class="st1" d="M10.8,31.3c1.9,0,5.4,2.5,7.3,6.1c1.5,2.9,1.5,6.9,1.5,8.7"/>
		<circle class="st0" cx="34.6" cy="11.8" r="3.4"/>
	</g>
</g>
</svg>
