<?xml version="1.0" encoding="utf-8"?>
<!-- Generator: Adobe Illustrator 23.0.1, SVG Export Plug-In . SVG Version: 6.00 Build 0)  -->
<svg version="1.1" id="Calque_4" xmlns="http://www.w3.org/2000/svg" xmlns:xlink="http://www.w3.org/1999/xlink" x="0px" y="0px"
	 viewBox="0 0 48 48" style="enable-background:new 0 0 48 48;" xml:space="preserve">
<style type="text/css">
	.st0{fill:none;stroke:#FFFFFF;stroke-width:1.1507;stroke-miterlimit:10;}
	.st1{fill:none;stroke:#FFFFFF;stroke-miterlimit:10;}
</style>
<path class="st0" d="M24.2,45.9c12,0,21.8-9.8,21.8-21.8c0-12-9.8-21.8-21.7-21.8c-12.1,0-21.9,9.8-21.9,21.8
	C2.3,36.1,12.1,45.9,24.2,45.9z"/>
<path class="st1" d="M33.7,33.2c0-1.7,0-3.2,0-4.8c-1.8,0-3.6,0-5.4,0c-1,2.4-2,2.9-5,2.5c0-0.2,0-0.4,0-0.6c0-3.1,0-6.2,0-9.3
	c0-1.7,0.3-2.1,1.8-2.7c0.1-0.1,0.3-0.2,0.3-0.4c0-2.1,0-4.2,0-6.4c-2.1,0-4.2,0-6.3,0c2.4-2.1,7.2-3.3,11.5-1.9
	c4.9,1.6,8.7,6.1,9.1,11.1C39.9,26,38,30.1,33.7,33.2z"/>
<path class="st1" d="M13.4,33.1c1.5-0.5,1.9-1.1,1.9-2.7c0-3.7,0-7.3,0-11c0-1.5-0.5-2.2-2.1-2.7c0-0.5,0-1,0-1.5c0-0.5,0-1,0-1.5
	c3.3,0,6.6,0,9.9,0c0,1,0,2,0,3c-1.6,0.5-2,1.1-2,2.8c0,4.2,0,8.5,0,12.7c0,0.3,0,0.5,0,0.8c2-0.1,4,0.3,5.9-0.5
	c0.9-0.4,1.5-1,2-1.7c0.1-0.1,0.3-0.3,0.4-0.3c0.7,0,1.4,0,2.1,0c0,2.5,0,4.8,0,7.3c-6.1,0-12.1,0-18.3,0c0-1.5,0-3,0-4.5
	C13.3,33.2,13.3,33.1,13.4,33.1z"/>
</svg>
