<?xml version="1.0" encoding="utf-8"?>
<!-- Generator: Adobe Illustrator 23.0.1, SVG Export Plug-In . SVG Version: 6.00 Build 0)  -->
<svg version="1.1" id="Layer_2" xmlns="http://www.w3.org/2000/svg" xmlns:xlink="http://www.w3.org/1999/xlink" x="0px" y="0px"
	 width="48px" height="48px" viewBox="0 0 48 48" style="enable-background:new 0 0 48 48;" xml:space="preserve">
<style type="text/css">
	.st0{fill:none;stroke:#FFFFFF;stroke-linecap:round;stroke-linejoin:round;}
</style>
<g>
	<path class="st0" d="M24,15.1c5.6,0,10,4.5,10.1,10.1l0,0C34,31,29.3,35.5,24,41.5c-5.1-5.7-9.6-10.2-10-15.7v-0.1
		c0-0.2,0-0.5,0-0.7C14,19.6,18.5,15.1,24,15.1L24,15.1z"/>
	<path class="st0" d="M24,20.3c-2.7,0-4.8,2.2-4.8,4.8l0,0c0,2.7,2.2,4.8,4.8,4.8l0,0c2.7,0,4.8-2.2,4.8-4.8S26.7,20.3,24,20.3z"/>
</g>
<path class="st0" d="M41,11.4v33.4c0,1.1-0.9,2-2,2H9c-1.1,0-2-0.9-2-2V3.4c0-1.1,0.9-2,2-2h22.5"/>
<path class="st0" d="M31.5,1.4v5.9c0,4.1,0,4.1,4.1,4.1H41L31.5,1.4z"/>
</svg>
