<?xml version="1.0" encoding="utf-8"?>
<!-- Generator: Adobe Illustrator 23.0.1, SVG Export Plug-In . SVG Version: 6.00 Build 0)  -->
<svg version="1.1" id="Layer_2" xmlns="http://www.w3.org/2000/svg" xmlns:xlink="http://www.w3.org/1999/xlink" x="0px" y="0px"
	 width="48px" height="48px" viewBox="0 0 48 48" style="enable-background:new 0 0 48 48;" xml:space="preserve">
<style type="text/css">
	.st0{fill:none;stroke:#FFFFFF;stroke-linecap:round;stroke-linejoin:round;}
</style>
<path class="st0" d="M34,45.2H14c-1.6,0-2.8-1.1-2.8-2.5V4.3c0-1.4,1.2-2.5,2.8-2.5h20c1.6,0,2.8,1.1,2.8,2.5v38.4
	C36.8,44.1,35.6,45.2,34,45.2z"/>
<path class="st0" d="M17.9,20c-1-1.3-1.6-2.9-1.6-4.7c0-4.2,3.4-7.6,7.6-7.6s7.6,3.4,7.6,7.6c0,1.8-0.6,3.4-1.6,4.7"/>
<line class="st0" x1="16.4" y1="28.9" x2="31.6" y2="28.9"/>
<line class="st0" x1="16.4" y1="34.3" x2="31.6" y2="34.3"/>
</svg>
