<?xml version="1.0" encoding="UTF-8" standalone="no"?>
<!-- Generator: Adobe Illustrator 23.0.1, SVG Export Plug-In . SVG Version: 6.00 Build 0)  -->

<svg
   version="1.1"
   id="Calque_2"
   x="0px"
   y="0px"
   width="48px"
   height="48px"
   viewBox="0 0 48 48"
   style="enable-background:new 0 0 48 48;"
   xml:space="preserve"
   sodipodi:docname="Nobuy.svg"
   inkscape:version="1.1 (c68e22c387, 2021-05-23)"
   xmlns:inkscape="http://www.inkscape.org/namespaces/inkscape"
   xmlns:sodipodi="http://sodipodi.sourceforge.net/DTD/sodipodi-0.dtd"
   xmlns="http://www.w3.org/2000/svg"
   xmlns:svg="http://www.w3.org/2000/svg"><defs
   id="defs1401" /><sodipodi:namedview
   id="namedview1399"
   pagecolor="#ffffff"
   bordercolor="#111111"
   borderopacity="1"
   inkscape:pageshadow="0"
   inkscape:pageopacity="0"
   inkscape:pagecheckerboard="1"
   showgrid="false"
   inkscape:zoom="11.092738"
   inkscape:cx="21.139957"
   inkscape:cy="35.924404"
   inkscape:window-width="1920"
   inkscape:window-height="1137"
   inkscape:window-x="-8"
   inkscape:window-y="-8"
   inkscape:window-maximized="1"
   inkscape:current-layer="layer1" />
<style
   type="text/css"
   id="style1340">
	.st0{fill:none;stroke:#FFFFFF;stroke-miterlimit:10;}
</style>

<g
   inkscape:groupmode="layer"
   id="layer1"
   inkscape:label="Layer 1"><g
     id="g6815"
     transform="matrix(0.8115204,0,0,0.8115204,-1.0191701,-5.2892293)"><path
       id="rect3324"
       style="font-variation-settings:normal;opacity:1;vector-effect:none;fill:none;fill-opacity:1;stroke:#ffffff;stroke-width:1.25882;stroke-linecap:butt;stroke-linejoin:miter;stroke-miterlimit:10;stroke-dasharray:none;stroke-dashoffset:0;stroke-opacity:1;-inkscape-stroke:none;stop-color:#000000;stop-opacity:1"
       d="m 48.09375,8.0234375 c -3.121412,0 -5.632812,2.5133535 -5.632812,5.6347655 v 30.646485 l -1.949219,-3.181641 c -1.512574,-2.468943 -4.716604,-3.239136 -7.185547,-1.726563 -2.468943,1.512574 -3.239136,4.718557 -1.726563,7.1875 l 9.181641,14.986328 c 0.960748,1.56821 2.604461,2.448331 4.308594,2.496094 0.259322,0.06059 0.533263,0.09375 0.816406,0.09375 H 47.875 c 0.293195,0 0.576288,-0.03675 0.84375,-0.101562 2.824967,-0.309237 5.009766,-2.687687 5.009766,-5.597656 V 13.658203 c 0,-3.121412 -2.513354,-5.6347655 -5.634766,-5.6347655 z" /><path
       id="rect3324-7"
       style="font-variation-settings:normal;vector-effect:none;fill:none;fill-opacity:1;stroke:#ffffff;stroke-width:1.25882;stroke-linecap:butt;stroke-linejoin:miter;stroke-miterlimit:10;stroke-dasharray:none;stroke-dashoffset:0;stroke-opacity:1;-inkscape-stroke:none;stop-color:#000000"
       d="m 13.56624,64.160156 c 3.121412,0 5.632812,-2.513354 5.632812,-5.634766 V 27.878906 l 1.949219,3.18164 c 1.512574,2.468944 4.716604,3.239137 7.185547,1.726563 2.468943,-1.512574 3.239136,-4.718556 1.726563,-7.1875 L 20.87874,10.613281 C 19.917992,9.0450715 18.274279,8.1649505 16.570146,8.1171875 c -0.259322,-0.06059 -0.533263,-0.09375 -0.816406,-0.09375 h -1.96875 c -0.293195,0 -0.576288,0.03675 -0.84375,0.101562 -2.824967,0.309237 -5.0097655,2.6876865 -5.0097655,5.5976565 V 58.52539 c 0,3.121412 2.5133535,5.634766 5.6347655,5.634766 z" /></g></g></svg>
