<?xml version="1.0" encoding="utf-8"?>
<!-- Generator: Adobe Illustrator 23.0.1, SVG Export Plug-In . SVG Version: 6.00 Build 0)  -->
<svg version="1.1" id="Calque_3" xmlns="http://www.w3.org/2000/svg" xmlns:xlink="http://www.w3.org/1999/xlink" x="0px" y="0px"
	 width="48px" height="48px" viewBox="0 0 48 48" style="enable-background:new 0 0 48 48;" xml:space="preserve">
<style type="text/css">
	.st0{fill:none;stroke:#FFFFFF;stroke-linecap:round;stroke-linejoin:round;stroke-miterlimit:10;}
</style>
<g>
	<path class="st0" d="M27.9,2.6c0.1-0.1,0.2-0.2,0.3-0.2c3.5,0,6.9,0,10.4,0c1,0.4,1.6,1.2,2.1,2.1c1.3,2.4,2.8,4.7,4.1,7.1
		C45,12,45,12.6,45.2,13c-0.4-0.1-0.9-0.2-1.3-0.2c-3.4,0-6.8,0-10.2-0.1c-0.7-1.3-1.4-2.6-2.1-3.9C30.3,6.7,29.1,4.7,27.9,2.6z"/>
	<path class="st0" d="M28.3,45.5c-0.4-0.2-1-0.4-1.2-0.7c-1.7-2.9-3.4-5.8-5-8.7c-0.2-0.4-0.2-1.2,0-1.7c1.7-3.1,3.5-6.1,5.3-9.2
		c0.3,0.3,0.6,0.5,0.8,0.8c0.9,1.6,1.8,3.2,2.7,4.8c0.9,1.5,1.7,3.1,2.6,4.6c-1.6,3.1-3.3,6.1-4.9,9.2
		C28.5,44.8,28.5,45.2,28.3,45.5z"/>
	<path class="st0" d="M27.9,2.6c1.2,2,2.4,4.1,3.5,6.1c0.7,1.3,1.4,2.6,2.1,3.9c-0.8,1.4-1.6,2.8-2.4,4.3c-1.1,2-2.7,3.8-3.3,6.1
		c-0.3-0.2-0.6-0.4-0.8-0.7c-1.6-2.8-3.2-5.6-4.8-8.4c-0.5-0.8-0.4-1.5,0-2.3c1.6-2.7,3.1-5.4,4.7-8C27.2,3.2,27.6,3,27.9,2.6z"/>
	<path class="st0" d="M8.5,14c0.4-0.1,0.8-0.2,1.2-0.2c3.1,0,6.2,0,9.3,0c0.9,0,1.5,0.3,2,1.1c1.5,2.8,3.1,5.6,4.7,8.4
		c0.1,0.2,0.2,0.5,0.3,0.8c-4,0-8,0-12,0c-0.2-0.4-0.3-0.9-0.5-1.3c-0.6-1.1-1.3-2.2-1.9-3.4C10.6,17.6,9.5,15.8,8.5,14z"/>
	<path class="st0" d="M33.6,35.3c-0.9-1.5-1.7-3.1-2.6-4.6c-0.9-1.6-1.8-3.2-2.7-4.8c-0.2-0.3-0.5-0.5-0.8-0.8
		c0.3-0.1,0.6-0.2,0.9-0.2c3.3,0,6.6,0,9.9,0c0.8,0,1.3,0.2,1.7,0.9c1.6,2.8,3.2,5.6,4.8,8.5c0.2,0.3,0.2,0.7,0.3,1.1
		C41.3,35.3,37.4,35.3,33.6,35.3z"/>
	<path class="st0" d="M27.9,23.1c0.5-2.3,2.2-4,3.3-6.1c0.8-1.5,1.6-2.9,2.4-4.3c3.4,0,6.8,0,10.2,0.1c0.4,0,0.9,0.2,1.3,0.2
		c-1.8,3.1-3.5,6.3-5.4,9.4c-0.2,0.4-0.9,0.7-1.4,0.7C34.9,23.2,31.4,23.1,27.9,23.1z"/>
	<path class="st0" d="M8.5,14c1,1.8,2.1,3.6,3.1,5.4c0.6,1.1,1.3,2.2,1.9,3.4c0.2,0.4,0.3,0.9,0.5,1.3c-0.1,0.3-0.2,0.7-0.4,1
		c-1.6,3.1-3.2,6.1-4.9,9.2c-0.3-0.3-0.8-0.5-1-0.9c-1.5-2.6-3-5.2-4.5-7.8c-0.5-0.9-0.6-1.8-0.1-2.8C4.8,20,6.4,17.2,8,14.5
		C8.1,14.3,8.3,14.1,8.5,14z"/>
	<path class="st0" d="M8.8,34.2c1.6-3.1,3.3-6.1,4.9-9.2c0.2-0.3,0.2-0.7,0.4-1c4,0,8,0,12,0c-1.8,3.2-3.6,6.4-5.4,9.6
		c-0.2,0.3-0.7,0.7-1.1,0.7c-3.5,0-7,0-10.5,0C8.9,34.3,8.9,34.3,8.8,34.2z"/>
	<path class="st0" d="M33.6,35.3c3.8,0,7.7,0,11.5,0c-0.1,0.3-0.2,0.7-0.4,1c-1.4,2.6-2.9,5.1-4.4,7.7c-0.6,1.1-1.4,1.6-2.6,1.5
		c-3.1-0.1-6.3,0-9.4-0.1c0.1-0.3,0.2-0.7,0.3-1C30.3,41.4,31.9,38.4,33.6,35.3z"/>
</g>
</svg>
