<?xml version="1.0" encoding="utf-8"?>
<!-- Generator: Adobe Illustrator 23.0.1, SVG Export Plug-In . SVG Version: 6.00 Build 0)  -->
<svg version="1.1" id="Calque_2" xmlns="http://www.w3.org/2000/svg" xmlns:xlink="http://www.w3.org/1999/xlink" x="0px" y="0px"
	 width="48px" height="48px" viewBox="0 0 48 48" style="enable-background:new 0 0 48 48;" xml:space="preserve">
<style type="text/css">
	.st0{fill:none;stroke:#FFFFFF;stroke-miterlimit:10;}
</style>
<g>
	<circle class="st0" cx="16.2" cy="32.2" r="1.7"/>
	<circle class="st0" cx="17.9" cy="37.1" r="1.7"/>
	<circle class="st0" cx="20.7" cy="32.2" r="1.7"/>
	<circle class="st0" cx="22.7" cy="37.1" r="1.7"/>
	<circle class="st0" cx="25.1" cy="32.2" r="1.7"/>
	<circle class="st0" cx="27.4" cy="37.1" r="1.7"/>
	<circle class="st0" cx="29.5" cy="32.2" r="1.7"/>
	<circle class="st0" cx="33.9" cy="32.2" r="1.7"/>
	<circle class="st0" cx="32.1" cy="37.1" r="1.7"/>
	<circle class="st0" cx="9" cy="12.5" r="2.7"/>
	<ellipse class="st0" cx="14.1" cy="13.2" rx="1.6" ry="1.5"/>
	<ellipse class="st0" cx="31.8" cy="13.2" rx="1.6" ry="1.5"/>
	<ellipse class="st0" cx="41.8" cy="13.2" rx="1.6" ry="1.5"/>
	<path class="st0" d="M16.8,13.1h2.8c0,0,0.1-1.4-1.3-1.4C17.2,11.7,16.8,12.3,16.8,13.1c0,1,0.5,1.7,1.4,1.7c1,0,1.3-0.7,1.3-0.7"
		/>
	<line class="st0" x1="20.7" y1="11.7" x2="20.7" y2="14.7"/>
	<path class="st0" d="M23.3,14.8c0,0,0-1.6,0-2.2c0-0.8-1.8-1.4-2.7,0.3"/>
	<path class="st0" d="M23.3,12.6"/>
	<line class="st0" x1="38.1" y1="11.7" x2="38.1" y2="14.7"/>
	<path class="st0" d="M40.1,11.7c-0.7-0.1-1.5,0.2-2,1.2"/>
	<path class="st0" d="M40.7,12.6"/>
	<line class="st0" x1="12.5" y1="11.5" x2="12.5" y2="16.6"/>
	<line class="st0" x1="43.4" y1="9.9" x2="43.4" y2="15"/>
	<path class="st0" d="M26.2,12.3c0,0,1.4,0,2,0s0.9,0.6,0.9,1.3s-0.9,1-0.9,1h-2.1V10h2c0,0,0.7,0.1,0.7,1.1s-0.6,1.2-0.6,1.2"/>
	<path class="st0" d="M34.2,12.2c0.9-0.9,2.5-0.6,2.5,0.3s0,2.3,0,2.3"/>
	<path class="st0" d="M36.8,13.3c-1.1-0.4-2.5-0.7-2.5,0.8s2.1,0.7,2.5,0.1"/>
	<path class="st0" d="M31.7,43.4H18.6c-0.7,0-1.3-0.6-1.3-1.3v0c0-0.7,0.6-1.3,1.3-1.3h13.1c0.7,0,1.3,0.6,1.3,1.3v0
		C33,42.8,32.4,43.4,31.7,43.4z"/>
	<polyline class="st0" points="0.3,22.7 19.6,22.7 24.5,27.9 30.2,22.6 47.7,22.6 	"/>
</g>
</svg>
