<?xml version="1.0" encoding="utf-8"?>
<!-- Generator: Adobe Illustrator 23.0.1, SVG Export Plug-In . SVG Version: 6.00 Build 0)  -->
<svg version="1.1" id="Calque_1" xmlns="http://www.w3.org/2000/svg" xmlns:xlink="http://www.w3.org/1999/xlink" x="0px" y="0px"
	 width="48px" height="48px" viewBox="0 0 48 48" style="enable-background:new 0 0 48 48;" xml:space="preserve">
<style type="text/css">
	.st0{fill:none;stroke:#FBFDFA;stroke-miterlimit:10;}
</style>
<g>
	<path class="st0" d="M41.2,24.1c0,0.6,0,1.3,0,1.9c0,1.7-1,2.8-2.7,2.9c-1.6,0.1-3.1,0.1-4.7,0c-1.5-0.1-2.5-1.2-2.5-2.7
		c-0.1-1.5-0.1-2.9,0-4.4c0.1-1.7,1.1-2.7,2.8-2.7c1.4,0,2.8,0,4.2,0c1.7,0,2.7,1,2.8,2.7C41.3,22.5,41.2,23.3,41.2,24.1
		C41.2,24.1,41.2,24.1,41.2,24.1z"/>
	<path class="st0" d="M16.7,24.1c0,0.7,0,1.3,0,2c0,1.5-0.9,2.7-2.5,2.8c-1.7,0.1-3.4,0.1-5.1,0c-1.4-0.1-2.3-1.3-2.4-2.8
		c0-1.4,0-2.8,0-4.2c0-1.7,1-2.8,2.7-2.8c1.5-0.1,3.1-0.1,4.6,0c1.5,0.1,2.5,1.3,2.6,2.9C16.7,22.7,16.7,23.4,16.7,24.1z"/>
	<path class="st0" d="M11.8,31.3c0.7,0,1.4,0,2.1,0c1.7,0.1,2.7,1.1,2.7,2.7c0.1,1.5,0,3,0,4.5c0,1.5-1,2.5-2.5,2.6
		c-1.6,0.1-3.3,0.1-4.9,0c-1.5-0.1-2.4-1.2-2.5-2.8c0-1.4,0-2.9,0-4.3c0-1.4,0.9-2.5,2.4-2.6C10,31.3,10.9,31.4,11.8,31.3
		C11.8,31.4,11.8,31.4,11.8,31.3z"/>
	<path class="st0" d="M23.9,29c-0.7,0-1.3,0-2,0c-1.7,0-2.8-1.1-2.9-2.7c-0.1-1.5-0.1-3,0-4.5c0.1-1.6,1.1-2.6,2.6-2.7
		c1.5-0.1,3.1-0.1,4.6,0c1.5,0.1,2.5,1.2,2.6,2.7c0.1,1.5,0.1,3,0,4.5c-0.1,1.5-1.1,2.6-2.7,2.7C25.5,29,24.7,28.9,23.9,29
		C23.9,29,23.9,29,23.9,29z"/>
	<path class="st0" d="M11.6,16.6c-0.7,0-1.3,0-2,0c-1.7,0-2.8-1-2.9-2.7c-0.1-1.5-0.1-3,0-4.5c0-1.5,1.2-2.6,2.7-2.6
		c1.5,0,3,0,4.6,0c1.4,0,2.5,1.1,2.6,2.7c0.1,1.5,0.1,3.1,0,4.6c-0.1,1.5-1.2,2.5-2.7,2.6C13.2,16.7,12.4,16.7,11.6,16.6
		C11.6,16.7,11.6,16.6,11.6,16.6z"/>
	<path class="st0" d="M36.3,31.3c0.7,0,1.3,0,2,0c1.8,0,2.8,1.1,2.9,2.8c0,1.4,0,2.8,0,4.2c0,1.8-1.1,2.8-2.9,2.9
		c-1.4,0-2.9,0-4.3,0c-1.6,0-2.6-1.1-2.7-2.8c-0.1-1.5-0.1-2.9,0-4.4c0.1-1.6,1.1-2.6,2.7-2.6C34.8,31.3,35.6,31.4,36.3,31.3
		C36.3,31.3,36.3,31.3,36.3,31.3z"/>
	<path class="st0" d="M29,11.8c0,0.7,0,1.3,0,2c0,1.6-1.1,2.7-2.7,2.8c-1.5,0-3,0-4.6,0c-1.4,0-2.5-1-2.6-2.4
		c-0.1-1.7-0.1-3.4,0-5.1c0.1-1.3,1.1-2.2,2.5-2.3c1.6-0.1,3.2-0.1,4.8,0c1.4,0.1,2.4,1.2,2.5,2.7C29,10.3,29,11.1,29,11.8
		C29,11.8,29,11.8,29,11.8z"/>
	<path class="st0" d="M36.2,16.7c-0.7,0-1.4,0-2.2,0c-1.3,0-2.4-0.9-2.5-2.2c-0.1-1.8-0.1-3.7,0-5.5c0.1-1.3,1.3-2.2,2.8-2.2
		c1.4,0,2.8,0,4.2,0c1.6,0,2.7,1,2.8,2.7c0.1,1.6,0.1,3.1,0,4.7c-0.1,1.4-1.2,2.4-2.7,2.5C37.7,16.7,36.9,16.7,36.2,16.7z"/>
	<path class="st0" d="M24.1,31.3c0.6,0,1.3,0,1.9,0c1.7,0,2.8,1,2.9,2.7c0.1,1.5,0.1,3,0,4.5c-0.1,1.6-1.2,2.6-2.8,2.7
		c-1.5,0-2.9,0-4.4,0c-1.6-0.1-2.6-1.1-2.7-2.6c-0.1-1.6-0.1-3.1,0-4.7c0-1.3,1-2.3,2.4-2.5C22.3,31.3,23.2,31.4,24.1,31.3
		C24.1,31.4,24.1,31.4,24.1,31.3z"/>
</g>
</svg>
