<?xml version="1.0" encoding="utf-8"?>
<!-- Generator: Adobe Illustrator 23.0.1, SVG Export Plug-In . SVG Version: 6.00 Build 0)  -->
<svg version="1.1" id="Calque_1" xmlns="http://www.w3.org/2000/svg" xmlns:xlink="http://www.w3.org/1999/xlink" x="0px" y="0px"
	 width="48px" height="48px" viewBox="0 0 48 48" style="enable-background:new 0 0 48 48;" xml:space="preserve">
<style type="text/css">
	.st0{fill:none;stroke:#FFFFFF;stroke-miterlimit:10;}
	.st1{fill:none;stroke:#FFFFFF;stroke-linecap:round;stroke-linejoin:round;stroke-miterlimit:10;}
</style>
<g>
	<path class="st0" d="M33,38c-3.7-0.3-7.3-1.6-9.7-4.6c-2.2-2.7-3.1-6.2-3-9.6c0.1-2.5,0.3-4.8,1.4-7.1c1.2-2.5,3-4.5,5.5-5.7
		c2-0.9,3.9-1.3,6.1-1.4c1.1-0.1,2.3,0,3.3,0.2c0.3,0.1,2.3,0.5,3,0.8c-4.5-5.4-11-8.7-18.1-8.2c-7,0.5-13.7,4.2-17.3,10.4
		c-3.6,6.2-4.1,13.8-1,20.3c3,6.3,9.1,10.8,15.9,12c3.9,0.6,8,0.2,11.6-1.3c1.7-0.7,3.3-1.6,4.8-2.7c0.8-0.6,1.5-1.2,2.2-1.9
		c0.3-0.3,0.6-0.6,0.9-1c0.1-0.1,0.5-0.8,0.6-0.8C37.3,38,35.1,38.1,33,38z"/>
	<path class="st0" d="M45.4,29.3c-0.5-0.4-1.2-0.3-1.8-0.3c0.3-1.3,0.5-2.7,0.6-4.1c-3.9,0-15.3,0.1-16.8,0.1
		c-1.3,0-0.1,3.7,0.2,4.6c1.4,3.2,4.4,4.8,7.8,4.4c1.6-0.2,3-0.9,4.3-1.8c0.7-0.5,1.3-1,1.9-1.6c0.5-0.5,1.2-1.5,2-1.6
		c-0.8,3-2.1,6.2-4.3,8.4c1-0.4,2-1,2.5-1.3c0.8-0.5,1.6-1.2,2.3-1.9C44.9,33.3,47,30.6,45.4,29.3z"/>
	<path class="st1" d="M45.9,16.9c-1.1-2.8-3.5-5-6.2-6.4c0.8,0.8,2.2,3.6,2.4,3.9c0.5,1,0.9,2.1,1.2,3.2c0.7,2.4,0.9,4.7,0.9,7.2
		c1.6-0.6,2.3-1.2,2.5-3C46.9,20.2,46.5,18.5,45.9,16.9z"/>
	<path class="st0" d="M27.2,21.8c-0.3-0.1-0.4-0.3-0.3-0.6c0-0.4,0.1-0.8,0.2-1.2c0-0.2,0.1-0.5,0.2-0.7c0.3-0.9,0.6-1.8,1.1-2.5
		c1.1-1.7,2.7-2.7,4.8-2.9c1.2-0.1,2.4,0.1,3.6,0.6c0.9,0.4,1.6,1,2.2,1.7c0.3,0.4,0.6,0.9,0.9,1.4c0.1,0.1,0.1,0.3,0.2,0.5
		c0.1,0.3,0.3,0.6,0.4,0.9c0.1,0.3,0.1,0.7,0.2,1.1c0.1,0.3,0.1,0.6,0.2,1c0.1,0.6-0.4,0.9-0.9,0.9c-4,0-7.9,0-11.9,0
		C27.8,21.8,27.4,21.8,27.2,21.8z"/>
</g>
</svg>
