<?xml version="1.0" encoding="utf-8"?>
<!-- Generator: Adobe Illustrator 23.0.1, SVG Export Plug-In . SVG Version: 6.00 Build 0)  -->
<svg version="1.1" id="Calque_1" xmlns="http://www.w3.org/2000/svg" xmlns:xlink="http://www.w3.org/1999/xlink" x="0px" y="0px"
	 width="48px" height="48px" viewBox="0 0 48 48" style="enable-background:new 0 0 48 48;" xml:space="preserve">
<style type="text/css">
	.st0{fill:none;stroke:#FFFFFF;stroke-linecap:round;stroke-linejoin:round;stroke-miterlimit:10;}
</style>
<g id="Calque_2">
	<polygon class="st0" points="7.2,18.2 7.2,42.6 24.7,44.6 24.6,19.9 	"/>
	<polyline class="st0" points="24.7,44.6 31.7,39 31.7,14.7 24.6,19.9 31.7,14.7 14.5,13.1 7.2,18.2 	"/>
	<ellipse class="st0" cx="15.4" cy="34" rx="4" ry="5"/>
	<ellipse class="st0" cx="15.4" cy="34" rx="4" ry="5"/>
	<ellipse class="st0" cx="28.7" cy="33.4" rx="1.5" ry="5"/>
	
		<ellipse transform="matrix(7.207245e-02 -0.9974 0.9974 7.207245e-02 2.008 34.8588)" class="st0" cx="19.7" cy="16.4" rx="1.4" ry="6.5"/>
	<path class="st0" d="M19.1,35.8c-1.8-0.5-3.2-2.5-3.2-4.9c0-0.7,0.1-1.3,0.3-1.9"/>
	<path class="st0" d="M26.4,43.2v2.1c0,0-1.7,2.2-8.1,2s-7.5-2.4-7.5-2.4V43"/>
	<g id="Calque_5">
		<circle class="st0" cx="20.7" cy="5.7" r="4.8"/>
		<path class="st0" d="M21.9,7.9c1.7-1,2.5-2.4,3-4.6c-1.8-0.1-2.6-0.3-3.7,0.1c-1.3,0.4-2.1,3.4-3,4.1c-1,0.8-1.7,0.5-1.7,0.5
			C18.2,8.8,20,9.1,21.9,7.9z"/>
		<path class="st0" d="M16.5,8.1c3.6,0.8,4.1-1.9,4.3-2.4c0.2-0.5,1.2-2.1,4.1-2.4"/>
		<circle class="st0" cx="41.2" cy="35.1" r="4.8"/>
		<path class="st0" d="M42.4,37.3c1.7-1,2.5-2.4,3-4.6c-1.8-0.1-2.6-0.3-3.7,0.1c-1.3,0.4-2.1,3.4-3,4.1c-1,0.8-1.7,0.5-1.7,0.5
			C38.6,38.1,40.4,38.4,42.4,37.3z"/>
		<path class="st0" d="M37,37.5c3.6,0.8,4.1-1.9,4.3-2.4c0.2-0.5,1.2-2.1,4.1-2.4"/>
	</g>
</g>
</svg>
