<?xml version="1.0" encoding="utf-8"?>
<!-- Generator: Adobe Illustrator 23.0.1, SVG Export Plug-In . SVG Version: 6.00 Build 0)  -->
<svg version="1.1" id="Calque_3" xmlns="http://www.w3.org/2000/svg" xmlns:xlink="http://www.w3.org/1999/xlink" x="0px" y="0px"
	 width="48px" height="48px" viewBox="0 0 48 48" style="enable-background:new 0 0 48 48;" xml:space="preserve">
<style type="text/css">
	.st0{fill:none;stroke:#FFFFFF;stroke-linecap:round;stroke-linejoin:round;stroke-miterlimit:10;}
</style>
<g>
	<path class="st0" d="M18.9,22.9c1.6,1.6,3.2,3.2,4.9,4.9c0,0.2,0,0.5,0,0.8c0,3.3,0,6.6,0,9.9c0,1.8,1.2,3,3,3c3.7,0,7.4,0,11.1,0
		c1.8,0,3-1.2,3-3c0-3.7,0-7.4,0-11.1c0-1.8-1.2-3-3-3c-3.7,0-7.4,0-11.1,0c-1,0-1.8,0.4-2.5,1.2c-3.9-3.9-7.7-7.7-11.6-11.6
		c-1.1,0.5-2.3,0.7-3.5,0.2c-0.8-0.3-1.5-0.9-1.9-1.7C6.6,11,6.9,9,8.2,7.9c1.3-1.2,3.3-1.3,4.7-0.3c1.6,1.1,2,2.9,1.2,5
		c2.5,2.5,5,5,7.6,7.5c1.9-1.3,4.3-1.4,6.6-1.4c3.2,0.1,6.5,0,9.7,0c2.2,0,4.2,0.7,5.9,2.1c2,1.6,3.1,3.8,3.1,6.4
		c0,3.7,0,7.4,0,11.1c0.1,4.7-3.5,8.2-7.9,8.7c-0.4,0-0.9,0.1-1.3,0.1c-3.7,0-7.3,0-11,0c-1.5,0-2.9-0.2-4.3-0.9
		c-3.1-1.5-4.9-4-5-7.6c-0.1-3.8,0-7.6,0-11.5C17.6,25.5,18.1,24,18.9,22.9z"/>
	<path class="st0" d="M19.3,15.2c-1-1-2-2.1-3-3.1c0.8-4.3-2.4-7-5.5-7.1C7.7,5,5,7.7,5.1,10.8c0.1,2.8,2.6,6.3,7.1,5.4
		c1.1,1,2.1,2,3.1,3c-2.8,2.4-8.8,1.3-11.9-2.1C-0.1,13.4,0.2,7.3,4,3.6C7.7,0,13.7,0,17.5,3.5C21.5,7.2,21,13,19.3,15.2z"/>
</g>
</svg>
