<?xml version="1.0" encoding="utf-8"?>
<!-- Generator: Adobe Illustrator 23.0.1, SVG Export Plug-In . SVG Version: 6.00 Build 0)  -->
<svg version="1.1" id="Calque_1" xmlns="http://www.w3.org/2000/svg" xmlns:xlink="http://www.w3.org/1999/xlink" x="0px" y="0px"
	 width="48px" height="48px" viewBox="0 0 48 48" style="enable-background:new 0 0 48 48;" xml:space="preserve">
<style type="text/css">
	.st0{fill:none;stroke:#FFFFFF;stroke-linecap:round;stroke-linejoin:round;stroke-miterlimit:10;}
</style>
<g>
	<path class="st0" d="M30.2,34.5c0-1.3,0-2.6,0-4c-3,0-5.9,0-8.9,0c0-1.5,0-3,0-4.5c2.9,0,5.9,0,8.8,0c0-1.4,0-2.7,0-4.1
		c-3,0-5.9,0-8.9,0c0-1.5,0-3,0-4.5c3,0,5.9,0,8.9,0c0-1.4,0-2.7,0-4c0.1,0,0.2,0,0.3,0c2.6,0,5.3,0,7.9,0c2.3,0,4.4,0.8,5.9,2.6
		c0.9,1.1,1.4,2.4,1.5,3.7c0.2,2.9,0.3,5.9-0.1,8.8c-0.5,3.3-2.8,5.7-6.2,5.9C36.5,34.7,33.4,34.5,30.2,34.5z M34.7,30.5
		c1.2,0,2.4,0,3.5,0c1.6-0.1,2.7-1,2.9-2.6c0.4-2.6,0.4-5.2,0-7.9c-0.2-1.3-1-2.2-2.3-2.4c-1.4-0.2-2.8-0.2-4.2-0.2
		C34.7,21.8,34.7,26.1,34.7,30.5z"/>
	<path class="st0" d="M6.5,26.8c0,2.6,0,5.2,0,7.8c-1.5,0-3,0-4.5,0c0-7,0-14.1,0-21.2c2.2,0,3.9,0,8.6,0c2.1,0,4.1,0.7,5.5,2.4
		c2.7,3.2,1.7,8.1-1.9,10.1c-0.1,0-0.2,0.1-0.3,0.2c1.4,2.8,2.8,5.6,4.3,8.5c-1.7,0-3.3,0-4.9,0c-0.1,0-0.3-0.3-0.4-0.4
		c-1.2-2.3-2.3-4.5-3.4-6.8c-0.2-0.4-0.4-0.5-0.9-0.5C7.9,26.8,7.2,26.8,6.5,26.8z M6.5,22.7c1.5,0,3,0.1,4.4,0
		c1.4-0.1,2.2-1.2,2.1-2.7c0-1.3-0.9-2.4-2.2-2.5c-1.4-0.1-2.8-0.1-4.3-0.1c0,0-0.1,0-0.1,0.1C6.5,19.3,6.5,21,6.5,22.7z"/>
</g>
</svg>
