<?xml version="1.0" encoding="utf-8"?>
<!-- Generator: Adobe Illustrator 23.0.1, SVG Export Plug-In . SVG Version: 6.00 Build 0)  -->
<svg version="1.1" id="Calque_1" xmlns="http://www.w3.org/2000/svg" xmlns:xlink="http://www.w3.org/1999/xlink" x="0px" y="0px"
	 width="48px" height="48px" viewBox="0 0 48 48" style="enable-background:new 0 0 48 48;" xml:space="preserve">
<style type="text/css">
	.st0{fill:none;stroke:#FFFFFF;stroke-linecap:round;stroke-miterlimit:10;}
</style>
<path class="st0" d="M0,11 M0,37 M0,11c6.5,0,13,0,19.5,0c6.8,0,12.3,5.1,13,11.8c0.6,6.7-3.9,12.7-10.6,14.1
	C21.6,36.9,21.3,37,21,37c-7,0-14,0-21,0 M18.9,14.6c-5.3,0-9.5,4.3-9.5,9.5c0,5.2,4.3,9.5,9.6,9.5c5.2,0,9.5-4.3,9.5-9.6
	C28.4,18.8,24.1,14.5,18.9,14.6z"/>
<path class="st0" d="M48,37c-5.4,0.5-10.9-3.7-12.5-9.4C33.1,19.3,39.4,11,48,11"/>
</svg>
