<?xml version="1.0" encoding="utf-8"?>
<!-- Generator: Adobe Illustrator 23.0.1, SVG Export Plug-In . SVG Version: 6.00 Build 0)  -->
<svg version="1.1" id="Calque_3" xmlns="http://www.w3.org/2000/svg" xmlns:xlink="http://www.w3.org/1999/xlink" x="0px" y="0px"
	 viewBox="0 0 48 48" style="enable-background:new 0 0 48 48;" xml:space="preserve">
<style type="text/css">
	.st0{fill:none;stroke:#FDFDFE;stroke-linecap:round;stroke-linejoin:round;stroke-miterlimit:10;}
</style>
<g>
	<path class="st0" d="M6.5,28.1v2.3c0,0.7,0.6,1.4,1.3,1.4c0,0,6,0,6,0h6c0.7,0,1.4-0.6,1.4-1.4v-3.1c0-3.1-1.5-3.8-7.3-3.8
		s-7.3-0.7-7.3-3.8c0-1.7,0-2.3,0-2.3c0-0.7,0.6-1.4,1.3-1.4c0,0,6,0,6,0h6c0.7,0,1.4,0.6,1.4,1.4v2.3"/>
	<path class="st0" d="M34.8,23.6h-3.7c-1.6,0-2.9-1.3-2.9-2.9v-0.9v-2.6c0-0.6,0.5-1.1,1.1-1.1h5.6h5.6c0.6,0,1.1,0.5,1.1,1.1v2.6"
		/>
	<path class="st0" d="M34.8,23.6h-3.9c-1.5,0-2.7,1.2-2.7,2.7v1.1V30c0,0.6,0.5,1.1,1.1,1.1h5.6h5.6c0.6,0,1.1-0.5,1.1-1.1v-2.6"/>
</g>
</svg>
