<?xml version="1.0" encoding="utf-8"?>
<!-- Generator: Adobe Illustrator 23.0.1, SVG Export Plug-In . SVG Version: 6.00 Build 0)  -->
<svg version="1.1" id="Calque_3" xmlns="http://www.w3.org/2000/svg" xmlns:xlink="http://www.w3.org/1999/xlink" x="0px" y="0px"
	 width="48px" height="48px" viewBox="0 0 48 48" style="enable-background:new 0 0 48 48;" xml:space="preserve">
<style type="text/css">
	.st0{fill:none;stroke:#FFFFFF;stroke-linecap:round;stroke-linejoin:round;stroke-miterlimit:10;}
</style>
<g>
	<path class="st0" d="M43.6,18.8c-0.2,0.5-0.3,1-0.6,1.4c-0.9,1.4-1.5,2.9-1.7,4.6c-0.3,2.2,0.9,3.6,3.1,3.8c0.9,0.1,1.8,0,2.7,0
		c0,0.1,0.1,0.2,0.1,0.3c-0.3,0.2-0.6,0.5-0.9,0.6c-1.6,0.6-3.3,0.8-5,0.4c-1.6-0.3-2.5-1.5-2.8-3c-0.2-1.1-0.1-2.2-0.1-3.4
		c0-0.2,0-0.5,0.1-0.9c-0.5,0.1-1,0.1-1.4,0.3c-3.2,1.1-6.1,2.9-8.7,5.1c-0.4,0.3-0.7,0.6-1.1,0.8c-0.7,0.4-1.4,0.7-2.1,0.2
		c-0.8-0.5-0.6-1.3-0.4-2.1c0.5-1.7,1.4-3.1,2.6-4.5c0.5-0.6,1-1.2,1.7-2c-0.6,0-0.9-0.1-1.2-0.1c-5.1,0.5-10.1,1.2-14.9,2.9
		c-2.8,1-5.3,2.5-7.1,5c-0.4,0.5-0.6,1.1-0.8,1.7c-0.3,1,0,1.4,1.1,1.5c0.5,0.1,0.9,0.1,1.4,0.2c0,0.1,0,0.2,0,0.2
		c-0.1,0.1-0.3,0.3-0.4,0.3c-1.6,0.4-3.2,0.5-4.8,0.2c-1.2-0.3-1.7-1-1.3-2.1c0.3-1,0.7-2.1,1.4-2.8c1.4-1.5,3-2.7,4.5-4.1
		c0.3-0.3,0.6-0.6,1.1-1.1c-0.6-0.3-1-0.5-1.4-0.6c-1-0.2-1.9-0.3-2.9-0.5c-0.3-0.1-0.6-0.2-1-0.4c0.3-0.8,0.9-0.8,1.4-0.8
		c1.9-0.1,3.9-0.2,5.8-0.2c1.5,0,2.8-0.4,3.9-1.3c1-0.8,2.1-1.5,3.1-2.3c1.2-0.8,2.4-0.6,3.6-0.2c0.6,0.2,0.7,0.7,0.3,1.1
		c-1.1,1.2-2.2,2.5-4,2.5c-0.1,0-1,0.1-1.1,0.3c1.2,0,3,0.1,4.1,0c3.5-0.3,7.1-0.7,10.6-1.1c0.7-0.1,1.5-0.1,2.3-0.1
		c0.3,0,0.7,0.2,1.2,0.3c-1.2,2.1-3.1,3.3-4.5,5c0,0.1,0.1,0.1,0.1,0.2c0.4-0.2,0.7-0.3,1.1-0.5c3.3-1.6,6.6-3.2,10-4.7
		C41.5,18.6,42.4,18.4,43.6,18.8z"/>
	<path class="st0" d="M24.4,22.6c-0.2,0.3-0.3,0.6-0.5,0.9c-0.7,1.1-1.5,2.2-2.3,3.3c-0.2,0.3-0.3,0.5-0.4,0.8
		c-0.4,1.2,0,1.8,1.3,1.8c0.2,0,0.4,0,0.7,0.2C23,29.8,22.8,30,22.7,30c-0.9,0.1-1.9,0.3-2.8,0.4c-1.4,0-1.8-0.6-1-1.8
		c0.3-0.5,0.6-1,1-1.4c0-0.1-0.1-0.1-0.1-0.2c-0.2,0.1-0.4,0.2-0.6,0.3c-2,1.2-4,2.3-6.3,2.7c-1,0.2-2.1,0.3-3.1,0.2
		c-1-0.1-1.4-0.9-0.8-1.7c0.5-0.7,1.1-1.4,1.8-1.9c2.4-1.8,5.1-3,8-3.6c1.4-0.3,2.9-0.5,4.3-0.7c0.4-0.1,0.9,0,1.3,0.1
		C24.3,22.5,24.3,22.5,24.4,22.6z M19.7,24.5c0-0.1-0.1-0.1-0.1-0.2c-0.2,0-0.5-0.1-0.7,0c-1.5,0.3-2.8,0.7-4.1,1.5
		c-0.3,0.2-0.6,0.6-0.6,0.9c0.1,0.5,0.6,0.4,1,0.4c1.5-0.1,2.8-0.8,3.9-1.8C19.3,25.1,19.5,24.8,19.7,24.5z"/>
</g>
</svg>
