<?xml version="1.0" encoding="utf-8"?>
<!-- Generator: Adobe Illustrator 23.0.1, SVG Export Plug-In . SVG Version: 6.00 Build 0)  -->
<svg version="1.1" id="Calque_2" xmlns="http://www.w3.org/2000/svg" xmlns:xlink="http://www.w3.org/1999/xlink" x="0px" y="0px"
	 width="48px" height="48px" viewBox="0 0 48 48" style="enable-background:new 0 0 48 48;" xml:space="preserve">
<style type="text/css">
	.st0{fill:none;stroke:#FFFFFF;stroke-linecap:round;stroke-linejoin:round;stroke-miterlimit:10;}
</style>
<g>
	<path class="st0" d="M5.2,31.5c-1.3,0.5-3,0.8-3.1-0.3c-0.2-1.8,3.4-6.5,16.9-14.7"/>
	<path class="st0" d="M4.5,20.5c0,0,21.5,0.5,28.3-1.8c-2.9,2.9-7.9,8.3-6.2,8.8c1.2,0.4,5.3-3.8,15.6-7.8c-1.7,5.9-3.7,9.5,3.4,9.8
		"/>
	<path class="st0" d="M8.8,28.6c0.8,2.2,14.3-4,14.3-6.2S7.7,25.9,8.8,28.6z"/>
	<path class="st0" d="M22.7,29.8c-1.3,0.4-2.8,0.7-3.1,0.3c-0.4-0.5,0.8-2.3,2.2-5.9"/>
</g>
</svg>
