<?xml version="1.0" encoding="utf-8"?>
<!-- Generator: Adobe Illustrator 23.0.1, SVG Export Plug-In . SVG Version: 6.00 Build 0)  -->
<svg version="1.1" id="Layer_2" xmlns="http://www.w3.org/2000/svg" xmlns:xlink="http://www.w3.org/1999/xlink" x="0px" y="0px"
	 width="48px" height="48px" viewBox="0 0 48 48" style="enable-background:new 0 0 48 48;" xml:space="preserve">
<style type="text/css">
	.st0{fill:none;stroke:#FFFFFF;stroke-linecap:round;stroke-linejoin:round;stroke-miterlimit:10;}
</style>
<g>
	<path class="st0" d="M0.9,17.4c0-5.5,0-11,0-16.5c5.5,0,11,0,16.5,0c0,5.5,0,11,0,16.5C11.9,17.4,6.4,17.4,0.9,17.4z M4.2,14.1
		c3.3,0,6.6,0,9.9,0c0-3.3,0-6.6,0-9.9c-3.3,0-6.6,0-9.9,0C4.2,7.5,4.2,10.8,4.2,14.1z"/>
	<path class="st0" d="M47.1,17.4c-5.5,0-11,0-16.5,0c0-5.5,0-11,0-16.5c5.5,0,11,0,16.5,0C47.1,6.4,47.1,11.9,47.1,17.4z M43.8,14.1
		c0-3.3,0-6.6,0-9.9c-3.3,0-6.6,0-9.9,0c0,3.3,0,6.6,0,9.9C37.2,14.1,40.5,14.1,43.8,14.1z"/>
	<path class="st0" d="M0.9,30.6c5.5,0,11,0,16.5,0c0,5.5,0,11,0,16.5c-5.5,0-11,0-16.5,0C0.9,41.6,0.9,36.1,0.9,30.6z M4.2,33.9
		c0,3.3,0,6.6,0,9.9c3.3,0,6.6,0,9.9,0c0-3.3,0-6.6,0-9.9C10.8,33.9,7.5,33.9,4.2,33.9z"/>
	<path class="st0" d="M37.2,37.2c0-1.1,0-2.2,0-3.3c-1.1,0-2,0-3.1,0v-3.3c1.5,0,3,0,4.4,0c0.6,0,1.3,0,2,0c0-2.2,0-4.4,0-6.6
		c1.1,0,2.2,0,3.3,0c0-1.1,0-2.2,0-3.3c1.1,0,2.2,0,3.3,0c0,2.2,0,4.4,0,6.6c-1.1,0-2.2,0-3.3,0c0,2.2,0,4.4,0,6.6l0,0
		c-1.1,0-2.2,0-3.3,0c0,1.1,0,2.2,0,3.3L37.2,37.2z"/>
	<path class="st0" d="M24.4,14.1l2.9,0c0-2.2,0-4.4,0-6.6c-1.1,0-2.2,0-3.3,0c0-1.1,0-2.2,0-3.3c1.1,0,2.2,0,3.3,0
		c0-1.1,0-2.2,0-3.3c-2.2,0-4.4,0-6.6,0c0,3.3,0,6.6,0,9.9c1.1,0,2.2,0,3.3,0c0,1.1,0,2.2,0,3.3c-1.1,0-2.2,0-3.3,0
		c0,1.1,0,2.2,0,3.3l3.3,0l0-2.9"/>
	<path class="st0" d="M20.7,27.3c-3.3,0-6.6,0-9.9,0c0-1.1,0-2.2,0-3.3c-1.1,0-2.2,0-3.3,0c0,0,0,0,0,0c0-1.1,0-2.2,0-3.3
		c2.2,0,4.4,0,6.6,0c0,1.1,0,2.2,0,3.3c2.2,0,4.4,0,6.6,0L20.7,27.3z"/>
	<path class="st0" d="M27.3,47.1c3.3,0,6.6,0,9.9,0c0,0,0-0.1,0-0.1c0-2.2,0-4.3,0-6.5l0,0c-1.1,0-2.2,0-3.3,0c0,1.1,0,2.2,0,3.3
		c-0.1,0-0.2,0-0.3,0c-2.1,0-4.2,0-6.3,0L27.3,47.1z"/>
	<path class="st0" d="M24,43.8c-1.1,0-2.2,0-3.3,0c0-3.3,0-6.6,0-9.9c1.1,0,2.2,0,3.3,0l0,0c0,1.1,0,2.2,0,3.3c1.1,0,2.2,0,3.3,0
		c0,1.1,0,2.2,0,3.3c-1.1,0-2.2,0-3.3,0C24,41.7,24,42.7,24,43.8L24,43.8z"/>
	<path class="st0" d="M30.6,20.7c2.2,0,4.4,0,6.6,0c0,2.2,0,4.4,0,6.6c-1.1,0-2.2,0-3.3,0c0-1.1,0-2.2,0-3.3c-1.1,0-2.2,0-3.3,0
		C30.6,22.9,30.6,21.8,30.6,20.7z"/>
	<path class="st0" d="M4.2,24c-1.1,0-2.2,0-3.3,0c0-1.1,0-2.2,0-3.3c1.1,0,2.2,0,3.3,0C4.2,21.8,4.2,22.9,4.2,24L4.2,24z"/>
	<path class="st0" d="M24,20.7c1.1,0,2.2,0,3.3,0c0,1.1,0,2.2,0,3.3c-1.1,0-2.2,0-3.3,0c0,0,0,0,0,0C24,22.9,24,21.8,24,20.7
		C24,20.7,24,20.7,24,20.7"/>
	<path class="st0" d="M4.2,24c1.1,0,2.2,0,3.3,0c0,0,0,0,0,0c0,1.1,0,2.2,0,3.3c-1.1,0-2.2,0-3.3,0C4.2,26.2,4.2,25.1,4.2,24
		C4.2,24,4.2,24,4.2,24z"/>
	<path class="st0" d="M27.3,30.6c0-1.1,0-2.2,0-3.3c1.1,0,2.2,0,3.3,0c0,1.1,0,2.2,0,3.3l0,0C29.5,30.6,28.4,30.6,27.3,30.6
		L27.3,30.6z"/>
	<path class="st0" d="M43.8,43.8c0-1.1,0-2.2,0-3.3c0,0,0,0,0,0c1.1,0,2.2,0,3.3,0c0,1.1,0,2.2,0,3.3C46,43.8,44.9,43.8,43.8,43.8
		L43.8,43.8z"/>
	<path class="st0" d="M43.8,43.8c0,1.1,0,2.2,0,3.3c-1.1,0-2.2,0-3.3,0c0-1.1,0-2.2,0-3.3C41.6,43.8,42.7,43.8,43.8,43.8
		C43.8,43.8,43.8,43.8,43.8,43.8z"/>
	<path class="st0" d="M7.5,10.8c0-1.1,0-2.2,0-3.3c1.1,0,2.2,0,3.3,0c0,1.1,0,2.2,0,3.3C9.7,10.8,8.6,10.8,7.5,10.8z"/>
	<path class="st0" d="M40.5,10.8c-1.1,0-2.2,0-3.3,0c0-1.1,0-2.2,0-3.3c1.1,0,2.2,0,3.3,0C40.5,8.6,40.5,9.7,40.5,10.8z"/>
	<path class="st0" d="M10.8,40.5c-1.1,0-2.2,0-3.3,0c0-1.1,0-2.2,0-3.3c1.1,0,2.2,0,3.3,0C10.8,38.3,10.8,39.4,10.8,40.5z"/>
	
		<ellipse transform="matrix(4.745888e-02 -0.9989 0.9989 4.745888e-02 -7.9428 62.8094)" class="st0" cx="29" cy="35.6" rx="2.3" ry="2.3"/>
</g>
</svg>
