<?xml version="1.0" encoding="utf-8"?>
<!-- Generator: Adobe Illustrator 23.0.1, SVG Export Plug-In . SVG Version: 6.00 Build 0)  -->
<svg version="1.1" id="Calque_3" xmlns="http://www.w3.org/2000/svg" xmlns:xlink="http://www.w3.org/1999/xlink" x="0px" y="0px"
	 width="48px" height="48px" viewBox="0 0 48 48" style="enable-background:new 0 0 48 48;" xml:space="preserve">
<style type="text/css">
	.st0{fill:none;stroke:#FFFFFF;stroke-linecap:round;stroke-linejoin:round;stroke-miterlimit:10;}
</style>
<path class="st0" d="M21.3,35.3c0,1.6,0,3.1,0,4.6c-1.9,0.5-3.7,0.9-5.7,0.9c-4.2,0-6.9-2.4-7.6-6.6c-0.1-1-0.2-1.9-0.2-2.9
	c0-2.9,0-5.8,0-8.7c0-0.2,0-0.5,0-0.7c2,0,3.9,0,6,0c0,0.3,0,0.6,0,0.9c0,2.6-0.1,5.2,0,7.8c0,1.1,0.3,2.2,0.7,3.2
	c0.8,1.7,2.7,2.4,4.9,2C20.1,35.6,20.7,35.5,21.3,35.3z"/>
<path class="st0" d="M36.4,28.4c0.7,0,1.3,0,2,0c1.2,0,1.1-0.1,1.1,1.1c0,0.9,0,1.8,0.2,2.6c0.2,0.6,0.3,1.1,0.6,1.6
	c0.7,1.3,1.9,1.9,3.3,2c0.8,0.1,1.6-0.1,2.3-0.3c0.2-0.1,0.4-0.1,0.5-0.2c0.5-0.1,0.5-0.1,0.5,0.3c0,1.3,0,2.6,0,3.8
	c0,0.3-0.1,0.4-0.4,0.5c-2,0.5-3.9,0.9-6,0.8c-1.4-0.1-2.7-0.4-3.8-1.2c-1.5-1-2.5-2.5-2.9-4.2c-0.2-0.9-0.4-1.9-0.4-2.8
	c-0.1-1.2,0-2.4,0-3.6c0-0.5,0-0.5,0.5-0.5C34.7,28.4,35.6,28.4,36.4,28.4z"/>
<rect x="7.9" y="7.2" class="st0" width="6" height="4.1"/>
<rect x="1.1" y="14" class="st0" width="19.9" height="5.2"/>
<polygon class="st0" points="46.5,14 39.7,14 39.7,7 33.4,7 33.4,14 26.6,14 26.6,19.2 33.4,19.2 33.4,25.6 39.7,25.6 39.7,19.2 
	46.5,19.2 "/>
</svg>
