<?xml version="1.0" encoding="utf-8"?>
<!-- Generator: Adobe Illustrator 23.0.1, SVG Export Plug-In . SVG Version: 6.00 Build 0)  -->
<svg version="1.1" id="Calque_2_-_copie" xmlns="http://www.w3.org/2000/svg" xmlns:xlink="http://www.w3.org/1999/xlink" x="0px"
	 y="0px" viewBox="0 0 48 48" style="enable-background:new 0 0 48 48;" xml:space="preserve">
<style type="text/css">
	.st0{fill:none;stroke:#FDFDFE;stroke-linecap:round;stroke-linejoin:round;stroke-miterlimit:10;}
</style>
<path class="st0" d="M20.2,3.8c1.5,0,2.8,1,2.8,2.1c2.1,0,5.9,1.7,5.9,6.8c1.5,1.5,3.2,6.6-0.1,9.9c2.8,0,7.5-0.4,8.9,2.7
	c1.3,2.9-1,8.8-13.8,8.8c-15,0-14.2-1.7-15-1.7c0-2.2-2.3-6.4-5.3-7.5c3.6-1.1,6.7-1.6,9.9-1.6c-2.3-2.3-4.1-8.4-0.1-9.8
	C11.1,11.2,14.6,6,17.2,6C17.2,4.9,18.6,3.8,20.2,3.8z"/>
<path class="st0" d="M38.3,28c2.4,1.8,4.5,6.2,3.5,9.2c2.1-3.5,4.1-9.3-4.2-12.2"/>
<path class="st0" d="M9,33c0,1.8-0.1,6.6-1.9,8.5c3.8,2.7,8.3,4.7,15.8,4.6c9.5-0.2,17.1-4.6,18.9-8.6"/>
<path class="st0" d="M0.4,37.6c1-1,1.8-2.3,2-3.6c0.6-3.8,0.4-7.4-1.9-9.6c2.2,0,3,0.4,3,0.4"/>
<path class="st0" d="M6.7,41.9c-1,1-3.2,2.6-6,2.9"/>
<path class="st0" d="M18.1,18.5c3.3,0,5,0,7.1,0c-1.4,0.6-2.2,2-3.5,2S19.7,19.2,18.1,18.5z"/>
<ellipse class="st0" cx="18.8" cy="12.5" rx="2.3" ry="3.3"/>
<ellipse class="st0" cx="18.8" cy="13.8" rx="1.5" ry="1.9"/>
<ellipse class="st0" cx="24.3" cy="12.5" rx="2.3" ry="3.3"/>
<ellipse class="st0" cx="24.3" cy="13.8" rx="1.5" ry="1.9"/>
<path class="st0" d="M40.7,39.5c1.7,2.6,1.5,4.4,1.5,6.1c3.6-1.6,4.4-4.3,4.6-5.7c0.3-1.6-0.5-4.7-3.1-6.5"/>
<path class="st0" d="M41.7,47.4c0.3-0.6,0.4-1.1,0.5-1.5"/>
</svg>
