<?xml version="1.0" encoding="utf-8"?>
<!-- Generator: Adobe Illustrator 23.0.1, SVG Export Plug-In . SVG Version: 6.00 Build 0)  -->
<svg version="1.1" id="Calque_2_-_copie" xmlns="http://www.w3.org/2000/svg" xmlns:xlink="http://www.w3.org/1999/xlink" x="0px"
	 y="0px" width="48px" height="48px" viewBox="0 0 48 48" style="enable-background:new 0 0 48 48;" xml:space="preserve">
<style type="text/css">
	.st0{fill:none;stroke:#FDFDFE;stroke-linecap:round;stroke-linejoin:round;stroke-miterlimit:10;}
</style>
<path class="st0" d="M20,2.3c1.5,0,2.7,1,2.7,2.1c2.1,0,5.8,1.7,5.8,6.6c1.5,1.5,3.1,6.4-0.1,9.7c2.7,0,7.3-0.4,8.7,2.6
	c1.3,2.8-1,8.6-13.5,8.6C9,31.9,9.8,30.3,9,30.3c0-2.1-2.2-6.2-5.2-7.3c3.5-1.1,6.5-1.6,9.7-1.6c-2.2-2.2-4-8.2-0.1-9.6
	c-2.2-2.2,1.2-7.3,3.7-7.3C17.1,3.4,18.5,2.3,20,2.3z"/>
<path class="st0" d="M37.7,26c2.3,1.8,4.4,6.1,3.4,9c2.1-3.4,4-9.1-4.1-11.9"/>
<path class="st0" d="M9.1,30.9c0,1.8-0.1,6.4-1.9,8.3c3.7,2.6,8.1,4.6,15.4,4.5c9.3-0.2,16.7-4.5,18.5-8.4"/>
<path class="st0" d="M0.7,35.3c1-1,1.8-2.2,2-3.5c0.6-3.7,0.4-7.2-1.9-9.4c2.1,0,2.9,0.4,2.9,0.4"/>
<path class="st0" d="M6.8,39.5c-1,1-3.1,2.5-5.9,2.8"/>
<path class="st0" d="M18,16.7c3.2,0,4.9,0,6.9,0c-1.4,0.6-2.1,2-3.4,2S19.5,17.4,18,16.7z"/>
<ellipse class="st0" cx="18.6" cy="10.8" rx="2.2" ry="3.2"/>
<ellipse class="st0" cx="18.6" cy="12.1" rx="1.5" ry="1.9"/>
<ellipse class="st0" cx="24" cy="10.8" rx="2.2" ry="3.2"/>
<ellipse class="st0" cx="24" cy="12.1" rx="1.5" ry="1.9"/>
<path class="st0" d="M40,37.2c1.7,2.5,1.5,4.3,1.5,6c3.5-1.6,4.3-4.2,4.5-5.6c0.3-1.6-0.5-4.6-3-6.3"/>
<path class="st0" d="M39.7,47.4c1.7-2,1.7-3.6,1.8-4"/>
<path class="st0" d="M46.5,47.5c1.6-2.2,0.5-9.4-0.5-9.8"/>
</svg>
