<?xml version="1.0" encoding="utf-8"?>
<!-- Generator: Adobe Illustrator 23.0.1, SVG Export Plug-In . SVG Version: 6.00 Build 0)  -->
<svg version="1.1" id="Calque_1" xmlns="http://www.w3.org/2000/svg" xmlns:xlink="http://www.w3.org/1999/xlink" x="0px" y="0px"
	 width="48px" height="48px" viewBox="0 0 48 48" style="enable-background:new 0 0 48 48;" xml:space="preserve">
<style type="text/css">
	.st0{fill:none;stroke:#FFFFFF;stroke-miterlimit:10;}
</style>
<path class="st0" d="M16.2,25c1.8,0,3.2,1.4,3.2,3.2c0,1.7-1.4,3.2-3.2,3.2c-1.8,0-3.3-1.5-3.3-3.2C13.1,26.4,14.5,25,16.2,25z"/>
<path class="st0" d="M23.7,21.2c0,1.8-1.4,3.2-3.2,3.2c-1.8,0-3.2-1.4-3.2-3.1c0-1.8,1.4-3.3,3.2-3.3C22.3,18.1,23.7,19.5,23.7,21.2
	z"/>
<path class="st0" d="M32.4,21.3c0,1.7-1.5,3.2-3.2,3.2c-1.8,0-3.2-1.4-3.2-3.2c0-1.8,1.5-3.3,3.2-3.2C30.9,18.1,32.4,19.5,32.4,21.3
	z"/>
<path class="st0" d="M33.3,25c1.8,0,3.3,1.4,3.2,3.2c0,1.7-1.4,3.2-3.2,3.2c-1.8,0-3.3-1.5-3.3-3.2C30.2,26.4,31.6,25,33.3,25z"/>
<path class="st0" d="M28.1,42.4c0,1.7-1.5,3.2-3.2,3.2c-1.8,0-3.2-1.5-3.2-3.3c0-1.7,1.5-3.2,3.2-3.1C26.7,39.2,28.1,40.7,28.1,42.4
	z"/>
<path class="st0" d="M24.7,17c-1.7,0-3.2-1.4-3.2-3.2c0-1.8,1.5-3.2,3.2-3.2c1.7,0,3.2,1.4,3.2,3.2C28,15.6,26.5,17,24.7,17z"/>
<path class="st0" d="M20.6,38.5c-1.8,0-3.2-1.4-3.2-3.2c0-1.8,1.4-3.2,3.2-3.2c1.8,0,3.3,1.5,3.3,3.2C23.8,37.1,22.3,38.5,20.6,38.5
	z"/>
<path class="st0" d="M32.4,35.3c0,1.7-1.4,3.2-3.2,3.2c-1.8,0-3.3-1.4-3.3-3.2c0-1.7,1.4-3.2,3.2-3.2C30.9,32.1,32.4,33.5,32.4,35.3
	z"/>
<path class="st0" d="M29.1,3.7c1.8,0,3.2,1.4,3.2,3.1c0,1.8-1.4,3.2-3.2,3.2c-1.8,0-3.2-1.4-3.2-3.1C25.9,5.1,27.3,3.7,29.1,3.7z"/>
<path class="st0" d="M21.7,28.1c0-1.8,1.4-3.2,3.2-3.1c1.8,0,3.2,1.5,3.2,3.3c0,1.8-1.5,3.2-3.3,3.1C23.1,31.3,21.7,29.9,21.7,28.1z
	"/>
</svg>
