<?xml version="1.0" encoding="utf-8"?>
<!-- Generator: Adobe Illustrator 23.0.1, SVG Export Plug-In . SVG Version: 6.00 Build 0)  -->
<svg version="1.1" id="Calque_3" xmlns="http://www.w3.org/2000/svg" xmlns:xlink="http://www.w3.org/1999/xlink" x="0px" y="0px"
	 width="48px" height="48px" viewBox="0 0 48 48" style="enable-background:new 0 0 48 48;" xml:space="preserve">
<style type="text/css">
	.st0{fill:none;stroke:#FFFFFF;stroke-linecap:round;stroke-linejoin:round;stroke-miterlimit:10;}
</style>
<g>
	<path class="st0" d="M1.5,30.7c3.3,2.2,6.9,4,10.7,5.2c4.6,1.5,9.3,2.3,14.2,1.2c2.3-0.5,4.3-1.4,5.9-3.1c0.4-0.5,0.8-1.1,1.1-1.7
		c-0.1-0.1-0.2-0.2-0.3-0.3c-0.4,0.2-0.8,0.3-1.2,0.5c-6.9,3.3-18,1.5-23.5-3.8c-5.2-5-4.6-13.1,1.2-17.8c3.6-2.9,7.8-4.2,12.3-4.5
		c7.8-0.5,14.8,1.7,20.8,6.8c1.4,1.2,2.6,2.5,3.7,3.9c-3.3-2.1-6.7-3.8-10.4-5c-5.2-1.6-10.5-2.5-15.8-0.7c-1.8,0.6-3.5,1.6-4.7,3.1
		c-0.3,0.4-0.5,0.8-0.7,1.2c0.1,0.1,0.1,0.2,0.2,0.3c0.4-0.2,0.9-0.4,1.3-0.6c6.9-3.3,17.9-1.4,23.4,3.9c5.1,5,4.7,12.8-0.9,17.4
		c-3.7,3.1-8.1,4.5-12.8,4.7C17.3,42,9.6,39.3,3.3,32.8C2.7,32.1,2.1,31.4,1.5,30.7z"/>
</g>
</svg>
