<?xml version="1.0" encoding="utf-8"?>
<!-- Generator: Adobe Illustrator 23.0.1, SVG Export Plug-In . SVG Version: 6.00 Build 0)  -->
<svg version="1.1" id="Calque_2" xmlns="http://www.w3.org/2000/svg" xmlns:xlink="http://www.w3.org/1999/xlink" x="0px" y="0px"
	 width="48px" height="48px" viewBox="0 0 48 48" style="enable-background:new 0 0 48 48;" xml:space="preserve">
<style type="text/css">
	.st0{fill:none;stroke:#FFFFFF;stroke-linecap:round;stroke-linejoin:round;stroke-miterlimit:10;}
</style>
<g>
	<path class="st0" d="M2.6,17.6l4.8,16.3l5.2-16.3L18,33.9l4.3-16.3c0,0,1.5-6.4,11.8-6.6c4.6-0.1,7.9,0.9,8.1,3.7
		c0.2,3-4.6,7.8-8,7.8c-1,0-2.5,0-3.4,0c0.8,0,2.6,0,3.3,0c1.4,2.1,2.5,8.3,4.2,10.1c2.4,2.5,5,3.4,7.1-1.4"/>
	<line class="st0" x1="25.4" y1="37" x2="29.3" y2="14.6"/>
</g>
</svg>
